<svg xmlns="http://www.w3.org/2000/svg"><defs><font id="icomoon" horiz-adv-x="1024"><font-face units-per-em="1024" ascent="960" descent="-64"/><glyph horiz-adv-x="512"/><glyph unicode="" glyph-name="add-to-list" d="M993.28 499.2H819.2v174.08C819.2 704 798.72 704 768 704s-51.2 0-51.2-30.72V499.2H542.72C512 499.2 512 478.72 512 448s0-51.2 30.72-51.2H716.8V222.72C716.8 192 737.28 192 768 192s51.2 0 51.2 30.72V396.8h174.08c30.72 0 30.72 20.48 30.72 51.2s0 51.2-30.72 51.2zm-614.4 0H30.72C0 499.2 0 478.72 0 448s0-51.2 30.72-51.2h348.16c30.72 0 30.72 20.48 30.72 51.2s0 51.2-30.72 51.2zm0-256H30.72C0 243.2 0 222.72 0 192s0-51.2 30.72-51.2h348.16c30.72 0 30.72 20.48 30.72 51.2s0 51.2-30.72 51.2zm0 512H30.72C0 755.2 0 734.72 0 704s0-51.2 30.72-51.2h348.16c30.72 0 30.72 20.48 30.72 51.2s0 51.2-30.72 51.2z"/><glyph unicode="" glyph-name="arrow-bold-down" d="M128 448h179.2v358.4h409.6V448H896L512 64 128 448z"/><glyph unicode="" glyph-name="arrow-bold-left" d="M512 832V652.8h358.4V243.2H512V64L128 448l384 384z"/><glyph unicode="" glyph-name="arrow-bold-right" d="M896 448 512 64v179.2H153.6v409.6H512V832l384-384z"/><glyph unicode="" glyph-name="arrow-bold-up" d="m512 832 384-384H716.8V89.6H307.2V448H128l384 384z"/><glyph unicode="" glyph-name="arrow-down" d="M512 64 179.2 396.8h179.2v409.6h307.2V396.8h179.2L512 64z"/><glyph unicode="" glyph-name="arrow-left" d="m128 448 332.8 332.8V601.6h409.6V294.4H460.8V115.2L128 448z"/><glyph unicode="" glyph-name="arrow-long-down" d="M512-25.6 230.4 243.2h179.2v665.6h204.8V243.2h179.2L512-25.6z"/><glyph unicode="" glyph-name="arrow-long-left" d="m38.4 448 268.8 281.6V550.4h665.6V345.6H307.2V166.4L38.4 448z"/><glyph unicode="" glyph-name="arrow-long-right" d="M716.8 166.4v179.2H51.2v204.8h665.6v179.2L985.6 448 716.8 166.4z"/><glyph unicode="" glyph-name="arrow-long-up" d="m512 921.6 281.6-268.8H614.4V-12.8H409.6v665.6H230.4L512 921.6z"/><glyph unicode="" glyph-name="arrow-right" d="M563.2 115.2v179.2H153.6v307.2h409.6v179.2L896 448 563.2 115.2z"/><glyph unicode="" glyph-name="arrow-up" d="m512 832 332.8-332.8H665.6V89.6H358.4v409.6H179.2L512 832z"/><glyph unicode="" glyph-name="arrow-with-circle-down" d="M512 939.52C240.486 939.52 20.429 719.462 20.429 448 20.429 176.486 240.487-43.571 512-43.571c271.411 0 491.52 220.058 491.52 491.571 0 271.462-220.109 491.52-491.52 491.52zm-.051-880.64c-214.886 0-389.12 174.182-389.12 389.12s174.182 389.12 389.12 389.12S901.12 662.886 901.12 448 726.835 58.88 511.949 58.88zM614.4 652.8H409.6V448h-128L512 217.6 742.4 448h-128v204.8z"/><glyph unicode="" glyph-name="arrow-with-circle-left" d="M512 939.52C240.486 939.52 20.429 719.462 20.429 448 20.429 176.486 240.487-43.571 512-43.571c271.411 0 491.52 220.058 491.52 491.571 0 271.462-220.109 491.52-491.52 491.52zm-.051-880.64c-214.886 0-389.12 174.182-389.12 389.12s174.182 389.12 389.12 389.12S901.12 662.886 901.12 448 726.835 58.88 511.949 58.88zM512 678.4 281.6 448 512 217.6v128h204.8v204.8H512v128z"/><glyph unicode="" glyph-name="arrow-with-circle-right" d="M512 939.52C240.486 939.52 20.429 719.462 20.429 448 20.429 176.486 240.487-43.571 512-43.571c271.411 0 491.52 220.058 491.52 491.571 0 271.462-220.109 491.52-491.52 491.52zm-.051-880.64c-214.886 0-389.12 174.182-389.12 389.12s174.182 389.12 389.12 389.12S901.12 662.886 901.12 448 726.835 58.88 511.949 58.88zM512 550.4H307.2V345.6H512v-128L742.4 448 512 678.4v-128z"/><glyph unicode="" glyph-name="arrow-with-circle-up" d="M512 939.52C240.486 939.52 20.429 719.462 20.429 448 20.429 176.486 240.487-43.571 512-43.571c271.411 0 491.52 220.058 491.52 491.571 0 271.462-220.109 491.52-491.52 491.52zm-.051-880.64c-214.886 0-389.12 174.182-389.12 389.12s174.182 389.12 389.12 389.12S901.12 662.886 901.12 448 726.835 58.88 511.949 58.88zM512 678.4 742.4 448h-128V243.2H409.6V448h-128L512 678.4z"/><glyph unicode="" glyph-name="bug" d="M512 908.8c-113.112 0-204.8-91.691-204.8-204.8h409.6c0 113.109-91.688 204.8-204.8 204.8zM972.8 448H819.2v127.838c0 1.419-.338 2.741-.412 4.141l113.413 113.419c20 19.994 20 52.412 0 72.406-19.988 19.997-52.412 19.997-72.4 0L746.376 652.385c-1.4.075-2.713.416-4.125.416h-460.5c-1.413 0-2.725-.341-4.125-.416L164.201 765.804c-19.988 19.997-52.412 19.997-72.4 0-20-19.994-20-52.412 0-72.406l113.413-113.419c-.075-1.4-.413-2.722-.413-4.141V448h-153.6c-28.275 0-51.2-22.922-51.2-51.2 0-28.275 22.925-51.2 51.2-51.2h153.6c0-39.934 8-77.866 21.875-112.831-2.263-1.619-4.85-2.534-6.875-4.566L74.976 83.391c-19.988-19.997-19.988-52.416 0-72.409 20-19.994 52.425-19.994 72.412 0l133.2 133.2c45.688-52.303 108.675-89.147 180.213-101.175v507.394h102.4V43.007c71.538 12.028 134.525 48.872 180.213 101.172l133.2-133.197c19.988-19.994 52.412-19.994 72.412 0 19.988 19.994 19.988 52.412 0 72.409L804.201 228.203c-2.025 2.031-4.613 2.947-6.875 4.566 13.875 34.966 21.875 72.897 21.875 112.831h153.6c28.275 0 51.2 22.925 51.2 51.2 0 28.278-22.925 51.2-51.2 51.2z"/><glyph unicode="" glyph-name="chevron-down" d="M231.219 573.542c22.323 22.835 53.402 24.627 80.691 0L512 381.696l200.09 191.846c27.29 24.627 58.419 22.835 80.589 0 22.323-22.784 20.89-61.286 0-82.688-20.787-21.402-240.384-230.502-240.384-230.502-11.11-11.418-25.702-17.152-40.294-17.152s-29.184 5.734-40.397 17.152c0 0-219.494 209.101-240.384 230.502-20.941 21.402-22.323 59.904 0 82.688z"/><glyph unicode="" glyph-name="chevron-left" d="M637.542 728.781c22.835-22.323 24.627-53.402 0-80.691L445.696 448l191.846-200.09c24.627-27.29 22.835-58.419 0-80.589-22.784-22.323-61.286-20.89-82.688 0-21.402 20.787-230.502 240.384-230.502 240.384-11.418 11.11-17.152 25.702-17.152 40.294s5.734 29.184 17.152 40.397c0 0 209.101 219.494 230.502 240.384 21.402 20.941 59.904 22.323 82.688 0z"/><glyph unicode="" glyph-name="chevron-right" d="M469.146 728.781c21.402-20.89 230.502-240.384 230.502-240.384C711.066 477.184 716.8 462.592 716.8 448s-5.734-29.184-17.152-40.294c0 0-209.101-219.597-230.502-240.384-21.402-20.89-59.904-22.323-82.688 0-22.835 22.221-24.627 53.299 0 80.589l191.846 200.09-191.846 200.09c-24.627 27.29-22.835 58.419 0 80.691 22.784 22.323 61.286 20.941 82.688 0z"/><glyph unicode="" glyph-name="chevron-small-down" d="M687.002 557.619c13.875 13.722 36.301 13.722 50.074 0 13.824-13.722 13.926-35.891 0-49.613L536.986 311.91c-13.824-13.722-36.198-13.722-50.125 0l-200.09 196.096c-13.824 13.67-13.824 35.891 0 49.613 13.875 13.722 36.301 13.722 50.074 0L512 396.8l175.002 160.819z"/><glyph unicode="" glyph-name="chevron-small-left" d="M621.619 272.998c13.722-13.875 13.722-36.301 0-50.074-13.722-13.824-35.891-13.926-49.613 0L375.91 423.014c-13.722 13.824-13.722 36.198 0 50.125l196.096 200.09c13.67 13.824 35.891 13.824 49.613 0 13.722-13.875 13.722-36.301 0-50.074L460.8 448l160.819-175.002z"/><glyph unicode="" glyph-name="chevron-small-right" d="M563.2 448 402.381 623.104c-13.722 13.824-13.722 36.198 0 50.074a34.86 34.86 0 0 0 49.613 0l196.096-200.09c13.722-13.875 13.722-36.301 0-50.125l-196.096-200.09c-13.67-13.926-35.891-13.824-49.613 0-13.722 13.773-13.722 36.198 0 50.074L563.2 448z"/><glyph unicode="" glyph-name="chevron-small-up" d="M336.998 338.381c-13.875-13.722-36.301-13.722-50.074 0s-13.926 35.891 0 49.613l200.09 196.096c13.824 13.722 36.198 13.722 50.125 0l200.09-196.096c13.824-13.67 13.824-35.891 0-49.613-13.875-13.722-36.301-13.722-50.125 0L512 499.2 336.998 338.381z"/><glyph unicode="" glyph-name="chevron-thin-down" d="M891.802 647.219c13.926 13.722 36.301 13.722 50.125 0s13.875-35.891 0-49.613L537.037 196.71c-13.824-13.722-36.198-13.722-50.125 0L82.022 597.606a34.86 34.86 0 0 0 0 49.613c13.875 13.722 36.301 13.722 50.125 0L512 281.6l379.802 365.619z"/><glyph unicode="" glyph-name="chevron-thin-left" d="M711.219 68.198c13.722-13.926 13.722-36.301 0-50.125s-35.891-13.875-49.613 0L260.71 422.963c-13.722 13.824-13.722 36.198 0 50.125l400.896 404.89a34.86 34.86 0 0 0 49.613 0c13.722-13.875 13.722-36.301 0-50.125L345.6 448 711.219 68.198z"/><glyph unicode="" glyph-name="chevron-thin-right" d="M678.4 448 312.781 827.904c-13.722 13.824-13.722 36.198 0 50.125a34.86 34.86 0 0 0 49.613 0l400.896-404.89c13.722-13.875 13.722-36.301 0-50.125L362.394 18.124c-13.722-13.875-35.891-13.824-49.613 0-13.722 13.773-13.722 36.198 0 50.125L678.4 447.999z"/><glyph unicode="" glyph-name="chevron-thin-up" d="M132.198 248.781c-13.926-13.722-36.301-13.722-50.125 0s-13.875 35.891 0 49.613l404.89 400.896c13.824 13.722 36.198 13.722 50.125 0l404.89-400.896a34.86 34.86 0 0 0 0-49.613c-13.875-13.722-36.301-13.722-50.074 0L512 614.4 132.198 248.781z"/><glyph unicode="" glyph-name="chevron-up" d="M792.781 322.458c-22.323-22.835-53.402-24.627-80.691 0L512 514.304 311.91 322.458c-27.29-24.627-58.419-22.835-80.589 0-22.323 22.784-20.89 61.286 0 82.688 20.787 21.402 240.384 230.502 240.384 230.502 11.11 11.418 25.702 17.152 40.294 17.152s29.184-5.734 40.397-17.152c0 0 219.494-209.101 240.384-230.502 20.941-21.402 22.323-59.904 0-82.688z"/><glyph unicode="" glyph-name="chevron-with-circle-down" d="M640.256 514.662 512 396.8 383.693 514.662c-10.138 10.035-26.522 10.035-36.762 0-10.086-10.035-10.086-26.368 0-36.352l146.637-143.718c10.189-10.035 26.624-10.035 36.71 0L676.915 478.31c10.189 9.984 10.138 26.317 0 36.352-10.086 10.035-26.47 10.035-36.659 0zM512 939.52C240.538 939.52 20.48 719.462 20.48 448 20.48 176.486 240.538-43.52 512-43.52S1003.52 176.486 1003.52 448c0 271.462-220.058 491.52-491.52 491.52zm0-919.245C275.712 20.275 84.275 211.763 84.275 448S275.712 875.725 512 875.725c236.186 0 427.725-191.488 427.725-427.725S748.186 20.275 512 20.275z"/><glyph unicode="" glyph-name="chevron-with-circle-left" d="M578.662 613.069c-10.035 10.086-26.368 10.086-36.352 0L398.592 466.381c-10.035-10.189-10.035-26.624 0-36.71L542.31 283.034c9.984-10.189 26.317-10.138 36.352 0 10.035 10.086 10.035 26.522 0 36.71L460.8 448l117.862 128.307c10.035 10.138 10.035 26.522 0 36.762zM512 939.52C240.538 939.52 20.48 719.462 20.48 448 20.48 176.486 240.538-43.52 512-43.52S1003.52 176.486 1003.52 448c0 271.462-220.058 491.52-491.52 491.52zm0-919.245C275.712 20.275 84.275 211.763 84.275 448S275.712 875.725 512 875.725c236.186 0 427.725-191.488 427.725-427.725S748.186 20.275 512 20.275z"/><glyph unicode="" glyph-name="chevron-with-circle-right" d="M563.2 448 445.338 576.307c-10.035 10.138-10.035 26.573 0 36.762 10.035 10.086 26.368 10.086 36.352 0l143.718-146.637c10.035-10.189 10.035-26.624 0-36.71L481.69 283.085c-9.984-10.189-26.317-10.138-36.352 0-10.035 10.086-10.035 26.522 0 36.71L563.2 448zM512 939.52c271.462 0 491.52-220.058 491.52-491.52 0-271.514-220.058-491.52-491.52-491.52S20.48 176.486 20.48 448c0 271.462 220.058 491.52 491.52 491.52zm0-919.245c236.186 0 427.725 191.488 427.725 427.725S748.186 875.725 512 875.725C275.712 875.725 84.275 684.237 84.275 448 84.224 211.763 275.712 20.275 512 20.275z"/><glyph unicode="" glyph-name="chevron-with-circle-up" d="M530.381 561.408c-10.189 10.035-26.624 10.035-36.71 0L347.034 417.69c-10.189-9.984-10.138-26.317 0-36.352 10.086-10.035 26.522-10.035 36.71 0L512 499.2l128.307-117.862c10.138-10.035 26.522-10.035 36.762 0 10.086 10.035 10.086 26.368 0 36.352L530.381 561.408zM512 939.52C240.538 939.52 20.48 719.462 20.48 448 20.48 176.486 240.538-43.52 512-43.52S1003.52 176.486 1003.52 448c0 271.462-220.058 491.52-491.52 491.52zm0-919.245C275.712 20.275 84.275 211.763 84.275 448S275.712 875.725 512 875.725c236.186 0 427.725-191.488 427.725-427.725S748.186 20.275 512 20.275z"/><glyph unicode="" glyph-name="classic-computer" d="M819.2 960H204.8c-56.32 0-102.4-46.029-102.4-102.4v-768c0-28.262 22.886-51.2 51.2-51.2V-64h716.8V38.4c28.314 0 51.2 22.938 51.2 51.2v768c0 56.371-46.029 102.4-102.4 102.4zM716.8 192H512v51.2h204.8V192zM768 396.8H256v409.6h512V396.8z"/><glyph unicode="" glyph-name="controller-fast-backward" d="M919.501 725.965 550.707 472.576s-14.285-10.291-14.285-24.627 14.285-24.525 14.285-24.525l368.794-253.491c29.286-19.456 53.299-5.069 53.299 32.051v491.981c0 37.222-24.013 51.61-53.299 32zm-464.691 0L86.016 472.576s-14.285-10.291-14.285-24.627 14.285-24.525 14.285-24.525L454.81 169.933c29.286-19.507 53.299-5.12 53.299 32v492.032c0 37.222-24.013 51.61-53.299 32z"/><glyph unicode="" glyph-name="creative-commons-attribution" d="M645.12 570.88V371.2H588.8V135.68H435.2V371.2h-56.32v199.68c0 15.36 15.36 30.72 30.72 30.72h204.8c15.36 0 30.72-15.36 30.72-30.72zM512 627.2c35.84 0 66.56 30.72 66.56 66.56s-30.72 66.56-66.56 66.56-66.56-30.72-66.56-66.56S476.16 627.2 512 627.2zM1003.52 448c0-138.24-46.08-250.88-138.24-343.04C768 7.68 650.24-43.52 512-43.52c-133.12 0-250.88 46.08-348.16 143.36S20.48 309.76 20.48 448c0 133.12 46.08 250.88 143.36 348.16S373.76 939.52 512 939.52c138.24 0 256-46.08 348.16-143.36C957.44 704 1003.52 586.24 1003.52 448zm-87.04 0c0 112.64-40.96 204.8-117.76 286.72C716.8 811.52 624.64 852.48 512 852.48s-204.8-40.96-281.6-117.76C148.48 652.8 107.52 555.52 107.52 448s40.96-204.8 117.76-281.6S399.36 48.64 512 48.64c107.52 0 204.8 40.96 286.72 122.88C875.52 243.2 916.48 335.36 916.48 448z"/><glyph unicode="" glyph-name="creative-commons-noderivs" d="M860.16 796.16C768 893.44 650.24 939.52 512 939.52s-250.88-46.08-348.16-143.36C66.56 698.88 20.48 581.12 20.48 448S66.56 197.12 163.84 99.84C261.12 2.56 373.76-43.52 512-43.52c133.12 0 250.88 51.2 353.28 148.48 92.16 92.16 138.24 209.92 138.24 343.04 0 138.24-46.08 256-143.36 348.16zM798.72 166.4C716.8 84.48 619.52 43.52 512 43.52S307.2 84.48 225.28 161.28C148.48 243.2 107.52 340.48 107.52 448s40.96 204.8 122.88 286.72c76.8 76.8 168.96 117.76 281.6 117.76s204.8-40.96 286.72-117.76c76.8-76.8 117.76-174.08 117.76-286.72s-40.96-204.8-117.76-281.6zm-460.8 240.64h358.4V320h-358.4v87.04zm0 158.72h358.4v-87.04h-358.4v87.04z"/><glyph unicode="" glyph-name="creative-commons-noncommercial-eu" d="M860.16 796.16C768 893.44 650.24 939.52 512 939.52s-250.88-46.08-348.16-143.36C66.56 698.88 20.48 581.12 20.48 448S66.56 197.12 163.84 99.84C261.12 2.56 373.76-43.52 512-43.52c133.12 0 250.88 51.2 353.28 148.48 92.16 92.16 138.24 209.92 138.24 343.04 0 138.24-46.08 256-143.36 348.16zM798.72 166.4C716.8 84.48 619.52 43.52 512 43.52S307.2 84.48 225.28 161.28C148.48 243.2 107.52 340.48 107.52 448c0 46.08 5.12 92.16 20.48 133.12l128-56.32h-5.12v-56.32h46.08v-40.96h-46.08V371.2h51.2c5.12-46.08 25.6-76.8 46.08-107.52 46.08-61.44 117.76-92.16 199.68-92.16 51.2 0 102.4 15.36 128 30.72l-20.48 92.16c-15.36-10.24-56.32-20.48-92.16-20.48-40.96 0-81.92 10.24-107.52 40.96-10.24 15.36-20.48 30.72-25.6 56.32H614.4l256-112.64c-20.48-35.84-46.08-66.56-71.68-92.16zm-322.56 256zm158.72 40.96H640v56.32H501.76l-56.32 25.6L460.8 576c25.6 30.72 61.44 46.08 102.4 46.08 35.84 0 71.68-10.24 92.16-20.48l25.6 92.16c-30.72 15.36-71.68 25.6-122.88 25.6-81.92 0-148.48-30.72-194.56-87.04-10.24-10.24-20.48-25.6-25.6-35.84l-163.84 66.56c15.36 25.6 35.84 46.08 56.32 66.56 76.8 81.92 168.96 122.88 281.6 122.88s204.8-40.96 286.72-117.76c76.8-76.8 117.76-174.08 117.76-286.72 0-35.84-5.12-71.68-10.24-102.4L634.88 463.36z"/><glyph unicode="" glyph-name="creative-commons-noncommercial-us" d="M860.16 796.16C768 893.44 650.24 939.52 512 939.52s-250.88-46.08-348.16-143.36C66.56 698.88 20.48 581.12 20.48 448S66.56 197.12 163.84 99.84C261.12 2.56 373.76-43.52 512-43.52c133.12 0 250.88 51.2 353.28 148.48 92.16 92.16 138.24 209.92 138.24 343.04s-46.08 256-143.36 348.16zM798.72 166.4C716.8 84.48 619.52 43.52 512 43.52S307.2 84.48 225.28 161.28C148.48 243.2 107.52 340.48 107.52 448c0 46.08 5.12 92.16 20.48 133.12l250.88-112.64c25.6-10.24 51.2-20.48 76.8-35.84l56.32-25.6 46.08-20.48c10.24-5.12 15.36-15.36 15.36-30.72 0-35.84-30.72-51.2-61.44-51.2-46.08 0-76.8 15.36-107.52 46.08l-66.56-66.56c40.96-35.84 92.16-56.32 148.48-56.32v-76.8h56.32v76.8c66.56 5.12 122.88 46.08 133.12 107.52l184.32-81.92c-10.24-30.72-35.84-61.44-61.44-87.04zM650.24 453.12c-25.6 10.24-51.2 20.48-76.8 35.84l-40.96 20.48-66.56 25.6c0 5.12-5.12 10.24-5.12 15.36 0 30.72 35.84 35.84 61.44 35.84 30.72 0 61.44-10.24 81.92-30.72l66.56 66.56c-40.96 30.72-87.04 40.96-122.88 46.08v76.8h-56.32v-76.8c-61.44 0-112.64-30.72-128-87.04l-189.44 87.04c15.36 25.6 35.84 46.08 56.32 66.56 76.8 76.8 168.96 117.76 281.6 117.76s204.8-40.96 286.72-117.76c76.8-76.8 117.76-174.08 117.76-286.72 0-35.84-5.12-71.68-10.24-107.52l-256 112.64z"/><glyph unicode="" glyph-name="creative-commons-public-domain" d="M860.16 796.16C768 893.44 650.24 939.52 512 939.52s-250.88-46.08-348.16-143.36C66.56 698.88 20.48 581.12 20.48 448S66.56 197.12 163.84 99.84C261.12 2.56 373.76-43.52 512-43.52c133.12 0 250.88 51.2 353.28 148.48 92.16 92.16 138.24 209.92 138.24 343.04 0 138.24-46.08 256-143.36 348.16zM798.72 166.4C716.8 84.48 619.52 43.52 512 43.52S307.2 84.48 225.28 161.28C148.48 243.2 107.52 340.48 107.52 448s40.96 204.8 122.88 286.72c76.8 76.8 168.96 117.76 281.6 117.76s204.8-40.96 286.72-117.76c76.8-76.8 117.76-174.08 117.76-286.72s-40.96-204.8-117.76-281.6zm-384 419.84H281.6V314.88h66.56v87.04h51.2c92.16 0 112.64 56.32 112.64 92.16 5.12 56.32-20.48 92.16-97.28 92.16zm-10.24-133.12h-56.32v81.92h56.32c30.72 0 46.08-15.36 46.08-40.96 0-20.48-15.36-40.96-46.08-40.96zM640 586.24H532.48V314.88H640c81.92 0 138.24 40.96 138.24 138.24 0 92.16-56.32 133.12-138.24 133.12zm0-215.04h-40.96v158.72H640c51.2 0 71.68-35.84 71.68-76.8 0-46.08-20.48-81.92-71.68-81.92z"/><glyph unicode="" glyph-name="creative-commons-remix" d="M860.16 796.16C768 893.44 650.24 939.52 512 939.52s-250.88-46.08-348.16-143.36C66.56 698.88 20.48 581.12 20.48 448S66.56 197.12 163.84 99.84C261.12 2.56 373.76-43.52 512-43.52c133.12 0 250.88 51.2 353.28 148.48 92.16 92.16 138.24 209.92 138.24 343.04 0 138.24-46.08 256-143.36 348.16zM798.72 166.4C716.8 84.48 619.52 43.52 512 43.52S307.2 84.48 225.28 161.28C148.48 243.2 107.52 340.48 107.52 448s40.96 204.8 122.88 286.72c76.8 76.8 168.96 117.76 281.6 117.76s204.8-40.96 286.72-117.76c76.8-76.8 117.76-174.08 117.76-286.72s-40.96-204.8-117.76-281.6zm35.84 271.36-97.28 40.96V601.6L435.2 724.48l-133.12-56.32V529.92l-117.76-51.2v-128l128-56.32 128 51.2h5.12l256-107.52h10.24l117.76 51.2 10.24 5.12v138.24l-5.12 5.12zM696.32 279.04 471.04 371.2v87.04l225.28-92.16v-87.04zm10.24 112.64-71.68 30.72 81.92 30.72 71.68-30.72-81.92-30.72zm107.52-76.8-87.04-35.84v87.04l87.04 35.84v-87.04z"/><glyph unicode="" glyph-name="creative-commons-share" d="M860.16 796.16C768 893.44 650.24 939.52 512 939.52s-250.88-46.08-348.16-143.36C66.56 698.88 20.48 581.12 20.48 448S66.56 197.12 163.84 99.84C261.12 2.56 373.76-43.52 512-43.52c133.12 0 250.88 51.2 353.28 148.48 92.16 92.16 138.24 209.92 138.24 343.04 0 138.24-46.08 256-143.36 348.16zM798.72 166.4C716.8 84.48 619.52 43.52 512 43.52S307.2 84.48 225.28 161.28C148.48 243.2 107.52 340.48 107.52 448s40.96 204.8 122.88 286.72c76.8 76.8 168.96 117.76 281.6 117.76s204.8-40.96 286.72-117.76c76.8-76.8 117.76-174.08 117.76-286.72s-40.96-204.8-117.76-281.6zm-87.04 424.96H604.16v102.4c0 15.36-10.24 25.6-25.6 25.6H312.32c-15.36 0-25.6-15.36-25.6-25.6V330.24c0-15.36 10.24-25.6 25.6-25.6h107.52V197.12c0-15.36 10.24-25.6 25.6-25.6h266.24c15.36 0 25.6 10.24 25.6 25.6v363.52c5.12 15.36-10.24 30.72-25.6 30.72zm-271.36 0c-15.36 0-25.6-15.36-25.6-25.6V366.08h-76.8v307.2h215.04v-81.92H440.32c5.12 0 5.12 0 0 0zm245.76-363.52H471.04v307.2h215.04v-307.2z"/><glyph unicode="" glyph-name="creative-commons-sharealike" d="M860.16 796.16C768 893.44 650.24 939.52 512 939.52s-250.88-46.08-348.16-143.36C66.56 698.88 20.48 581.12 20.48 448S66.56 197.12 163.84 99.84C261.12 2.56 373.76-43.52 512-43.52c133.12 0 250.88 51.2 353.28 148.48 92.16 92.16 138.24 209.92 138.24 343.04s-46.08 256-143.36 348.16zM798.72 166.4C716.8 84.48 619.52 43.52 512 43.52S307.2 84.48 225.28 161.28C148.48 243.2 107.52 340.48 107.52 448s40.96 204.8 122.88 286.72c76.8 76.8 168.96 117.76 281.6 117.76s204.8-40.96 286.72-117.76c76.8-76.8 117.76-174.08 117.76-286.72s-40.96-204.8-117.76-281.6zm-35.84 276.48c0-148.48-102.4-261.12-256-261.12-107.52 0-199.68 66.56-215.04 194.56h122.88c5.12-66.56 46.08-87.04 107.52-87.04 71.68 0 117.76 66.56 117.76 163.84 0 102.4-40.96 158.72-112.64 158.72-56.32 0-102.4-20.48-112.64-87.04h35.84l-97.28-97.28L256 519.68h40.96C317.44 642.56 404.48 709.12 512 709.12c153.6 0 250.88-117.76 250.88-266.24z"/><glyph unicode="" glyph-name="creative-commons" d="m450.56 407.04 56.32-30.72c-10.24-20.48-30.72-40.96-51.2-56.32S409.6 299.52 384 299.52c-40.96 0-76.8 10.24-102.4 40.96-25.6 25.6-35.84 61.44-35.84 107.52s15.36 81.92 40.96 107.52c20.48 25.6 56.32 40.96 97.28 40.96 56.32 0 102.4-20.48 122.88-66.56l-61.44-35.84c-10.24 15.36-15.36 25.6-25.6 30.72s-20.48 5.12-25.6 5.12c-40.96 0-61.44-25.6-61.44-81.92 0-25.6 5.12-46.08 15.36-61.44s25.6-20.48 46.08-20.48c25.6 0 46.08 10.24 56.32 40.96zm215.04-40.96c-20.48 0-35.84 5.12-46.08 20.48S604.16 422.4 604.16 448c0 56.32 20.48 81.92 61.44 81.92 10.24 0 20.48-5.12 25.6-10.24 10.24-5.12 20.48-15.36 25.6-30.72l61.44 30.72c-25.6 46.08-66.56 66.56-122.88 66.56-40.96 0-71.68-15.36-97.28-40.96s-40.96-61.44-40.96-107.52 10.24-81.92 35.84-107.52 61.44-40.96 102.4-40.96c25.6 0 51.2 5.12 71.68 20.48s40.96 30.72 51.2 56.32L716.8 396.8c-5.12-20.48-25.6-30.72-51.2-30.72zM1003.52 448c0-138.24-46.08-250.88-138.24-343.04C768 7.68 650.24-43.52 512-43.52c-133.12 0-250.88 46.08-348.16 143.36S20.48 309.76 20.48 448c0 133.12 46.08 250.88 143.36 348.16S373.76 939.52 512 939.52c138.24 0 256-46.08 348.16-143.36C957.44 704 1003.52 586.24 1003.52 448zm-87.04 0c0 112.64-40.96 204.8-117.76 286.72C716.8 811.52 624.64 852.48 512 852.48s-204.8-40.96-281.6-117.76C148.48 652.8 107.52 555.52 107.52 448s40.96-204.8 117.76-281.6C307.2 84.48 399.36 48.64 512 48.64c107.52 0 204.8 40.96 286.72 122.88C875.52 243.2 916.48 335.36 916.48 448z"/><glyph unicode="" glyph-name="crop" d="M307.2 243.2v665.6H204.8V755.2H51.2V652.8h153.6V243.2c0-56.3 46.025-102.4 102.4-102.4h409.6V-12.8h102.4v153.6h153.6v102.4H307.2zm409.6 51.2h102.4v358.4c0 56.3-46.025 102.4-102.4 102.4H358.4V652.8h358.4V294.4z"/><glyph unicode="" glyph-name="document-landscape" d="M972.8 806.4H51.2C22.938 806.4 0 783.514 0 755.2V140.8c0-28.314 22.938-51.2 51.2-51.2h921.6c28.262 0 51.2 22.886 51.2 51.2v614.4c0 28.314-22.886 51.2-51.2 51.2zM921.6 192H102.4v512h819.2V192z"/><glyph unicode="" glyph-name="dot-single" d="M399.36 448c0-62.208 50.483-112.64 112.691-112.64S624.64 385.843 624.64 448c0 62.208-50.381 112.589-112.589 112.589S399.36 510.208 399.36 448z"/><glyph unicode="" glyph-name="dots-three-horizontal" d="M512.051 560.64c-62.208 0-112.691-50.432-112.691-112.64s50.483-112.64 112.691-112.64c62.208 0 112.589 50.432 112.589 112.64s-50.381 112.64-112.589 112.64zm-358.4 0C91.443 560.64 40.96 510.208 40.96 448s50.483-112.64 112.691-112.64c62.208 0 112.589 50.483 112.589 112.64s-50.381 112.64-112.589 112.64zm716.8 0c-62.208 0-112.691-50.432-112.691-112.64s50.483-112.64 112.691-112.64c62.208 0 112.589 50.432 112.589 112.64s-50.381 112.64-112.589 112.64z"/><glyph unicode="" glyph-name="dots-three-vertical" d="M512.051 560.64c-62.208 0-112.691-50.432-112.691-112.64s50.483-112.64 112.691-112.64c62.208 0 112.589 50.432 112.589 112.64s-50.381 112.64-112.589 112.64zm0 133.12c62.208 0 112.589 50.483 112.589 112.64s-50.381 112.64-112.589 112.64S399.36 868.608 399.36 806.4s50.483-112.64 112.691-112.64zm0-491.52c-62.208 0-112.691-50.432-112.691-112.64S449.843-23.04 512.051-23.04c62.208 0 112.589 50.432 112.589 112.64s-50.381 112.64-112.589 112.64z"/><glyph unicode="" glyph-name="dots-two-horizontal" d="M716.851 560.64c-62.208 0-112.691-50.432-112.691-112.64s50.483-112.64 112.691-112.64c62.208 0 112.589 50.432 112.589 112.64s-50.381 112.64-112.589 112.64zm-409.6 0c-62.208 0-112.691-50.432-112.691-112.64s50.483-112.64 112.691-112.64c62.208 0 112.589 50.483 112.589 112.64s-50.381 112.64-112.589 112.64z"/><glyph unicode="" glyph-name="dots-two-vertical" d="M512.051 540.16c62.208 0 112.589 50.483 112.589 112.64s-50.381 112.64-112.589 112.64S399.36 715.008 399.36 652.8s50.483-112.64 112.691-112.64zm0-184.32c-62.208 0-112.691-50.432-112.691-112.64s50.483-112.64 112.691-112.64c62.208 0 112.589 50.432 112.589 112.64s-50.381 112.64-112.589 112.64z"/><glyph unicode="" glyph-name="eye-with-line" d="M948.3 884.347c-19.944 20.006-52.397 20.009-72.397.006L75.7 84.047c-20-20-20-52.45.006-72.397 20-20.003 52.397-20 72.397.003L948.297 811.95c20.006 20 20.006 52.397.003 72.397zm-789.15-615.41 131.038 130.994c-3.563 15.519-5.787 31.506-5.787 48.069 0 121.8 101.9 220.6 227.6 220.6 14.65 0 28.9-1.612 42.775-4.181l61.55 61.525c-32.95 5.344-67.5 8.756-104.325 8.756-335.9 0-512-247.4-512-286.7 0-21.681 54.137-107.05 159.15-179.063zm705.875 358.025L733.85 495.824c3.525-15.437 5.7-31.362 5.7-47.825 0-121.8-101.85-220.5-227.55-220.5-14.537 0-28.663 1.625-42.437 4.15l-61.65-61.625c32.888-5.319 67.362-8.725 104.088-8.725 335.9 0 512 247.5 512 286.7 0 21.725-54.075 107-158.975 178.962z"/><glyph unicode="" glyph-name="fingerprint" d="M495.595 558.068c-19.133-4.8-31.04-25.45-26.592-46.1 36.692-170.35 44.707-348.9 23.118-516.35-2.687-21.025 10.887-40.425 30.345-43.325a33.564 33.564 0 0 1 4.957-.375c17.466 0 32.708 13.9 35.209 33.1 22.747 176.7 14.362 364.925-24.322 544.35-4.448 20.7-23.581 33.4-42.714 28.7zm-82.464-216.225c-19.55-1.95-33.958-20.65-32.152-41.775 8.663-100.725 6.393-200.15-6.764-295.5-2.872-20.975 10.563-40.525 29.974-43.625 1.76-.3 3.521-.425 5.281-.425 17.327 0 32.522 13.7 35.163 32.75 13.945 101.425 16.4 207.05 7.227 313.9-1.807 21.125-19.782 36.875-38.73 34.675zm55.779 340.95c-40.12-10.075-74.218-36.425-96.038-74.175-21.821-37.8-28.677-82.425-19.365-125.625 4.494-20.975 8.571-41.975 12.138-62.95 3.475-20.875 22.469-34.65 41.371-30.85 19.365 3.825 32.152 23.85 28.584 44.7a1548.571 1548.571 0 0 1-12.787 66.475c-5.003 23.25-1.297 47.25 10.47 67.6 11.767 20.375 30.16 34.6 51.702 40 44.66 11.225 89.181-18.975 99.513-67.025 38.221-177.225 48.228-354.8 29.743-527.825-2.27-21.075 11.767-40.125 31.271-42.55 1.39-.175 2.78-.25 4.123-.25 17.836 0 33.217 14.425 35.302 34 19.411 181.8 8.941 368.2-31.132 554-19.18 89.225-101.922 145.075-184.895 124.475zm-123.418-27.275c12.231 16.65 9.59 40.8-5.837 53.95-15.474 13.175-37.804 10.25-49.942-6.3-6.254-8.525-12.092-17.5-17.466-26.8-38.591-66.85-50.776-145.825-34.236-222.4 30.391-141.125 37.479-286.1 20.523-419.275-2.687-21 10.933-40.375 30.391-43.275a36.573 36.573 0 0 1 4.911-.35c17.512 0 32.754 13.925 35.209 33.175 18.114 142.35 10.609 296.95-21.728 447.125-12.184 56.575-3.197 114.95 25.341 164.4 3.984 6.9 8.246 13.475 12.833 19.75zm428.117-351.85c-19.597-1.05-34.746-19.05-33.773-40.25 3.243-70.85 2.224-142.025-3.011-211.525-1.621-21.15 12.972-39.675 32.569-41.4a37.987 37.987 0 0 1 2.919-.125c18.346 0 33.912 15.2 35.395 35.275 5.513 72.825 6.579 147.375 3.197 221.575-.973 21.2-18.114 37-37.294 36.45zm-8.663 52.975c1.483 0 2.965.1 4.448.3 19.504 2.6 33.31 21.8 30.901 42.825-7.181 62.6-17.651 125.7-30.994 187.525-28.306 131.825-140.791 227.525-267.452 227.525-20.014 0-40.027-2.45-59.578-7.3a262.204 262.204 0 0 1-47.162-16.75c-18.022-8.425-26.314-31.05-18.531-50.5 7.829-19.475 28.816-28.45 46.791-20 11.211 5.25 23.025 9.425 34.931 12.425a181.136 181.136 0 0 0 43.548 5.325c93.907 0 177.205-70.675 198.145-168.125 12.787-59.25 22.793-119.675 29.696-179.575 2.224-19.45 17.558-33.675 35.256-33.675zm119.897 259.475c-16.169 75.4-51.98 144.65-103.451 200.375-13.852 15-36.368 14.953-50.312-.047-13.945-14.975-13.945-39.6-.093-54.6 42.112-45.6 71.345-102.772 84.549-164.222 33.125-153.775 47.95-311.553 44.058-465.853-.51-21.2 14.964-42.171 34.607-42.171h.973c19.226 0 35.024 19.196 35.58 40.046 4.031 160.875-11.397 326.321-45.911 486.471zM173.568 301.843c1.714 0 3.475.125 5.235.4 19.411 3.075 32.847 22.6 30.021 43.575-4.309 31.65-10.007 64.125-17.002 96.6-19.411 89.825-5.142 182.55 40.213 261.025 45.216 78.325 116.098 133 199.396 153.925 71.948 17.875 148.528 7.325 214.684-28.575 17.466-9.6 38.916-1.9 47.764 17.025 8.849 18.95 1.76 42.05-15.798 51.575-80.842 43.925-174.471 56.625-262.68 34.8-101.875-25.6-188.463-92.4-243.778-188.1-55.408-95.95-72.828-209.275-49.108-319.075 6.532-30.4 11.86-60.775 15.891-90.35 2.594-19.1 17.79-32.825 35.163-32.825zm10.61-58.643h-1.205c-19.643 0-35.024-12.766-34.375-33.966 1.39-43.4.185-80.896-3.567-122.346-1.946-21.1 12.37-39.81 31.92-41.885 1.158-.125 2.363-.13 3.521-.13 18.068 0 33.542 12.154 35.348 31.979 4.077 44.8 5.42 88.209 3.938 135.009-.695 20.75-16.493 31.34-35.58 31.34z"/><glyph unicode="" glyph-name="flower" d="M648.15 511.512c22.513 55.612-18.587 128.425-61.95 174.363 16.812 60.894 19.038 144.462-26.9 183.063-45.925 38.606-127.863 22.019-184.962-5.019-52.713 34.794-131.513 62.744-182.425 30.987-50.888-31.756-60.437-114.819-52.375-177.469C90.151 678.05 39.226 611.749 53.7 553.525s90.513-92.975 152.6-104.656c22.187-59.144 69.512-128.062 129.362-132.294 42.4-3 82.937 27.2 113.863 64.681 62.513-77.831 106.587-160.144 130.825-240.975-37 55.375-113.675 102.919-273.15 102.919 0-212.738 155.75-256.144 256-256.144l163.85-.106c0 139.413-50.488 302.575-168.425 455.725 40.038 12.644 75.688 34.675 89.525 68.837zm-224.075 11.257c-58.725-36.631-136.025-18.731-172.65 39.994-36.637 58.719-18.738 136.025 39.988 172.656s136.025 18.719 172.662-39.994c36.625-58.725 18.725-136.025-40-172.656zm293.75-189.856c55.425-111.1 85.438-227.994 85.887-343.313C972.612 111 972.8 335.038 972.8 550.256c0 0-187.938-52.975-254.975-217.344z"/><glyph unicode="" glyph-name="merge" d="M915.95 53.4 864.85-64C704.25 5.931 583.5 97.4 512 206.075 440.5 97.4 319.75 5.931 159.15-64l-51.1 117.4c155.1 67.5 329.7 184.6 329.7 394.6v153.6H281.6L512 960l230.4-358.4H586.25V448c0-210 174.6-327.1 329.7-394.6z"/><glyph unicode="" glyph-name="mouse-pointer" d="M556.041 345.839 685.329 34.531 571.923-12.8 442.632 296.978 256.001 108.806v794.847l560.442-557.48-260.401-.334z"/><glyph unicode="" glyph-name="newsletter" d="M921.6 806.4H102.4c-28.3 0-51.2-22.9-51.2-51.2V140.8c0-28.25 22.9-51.2 51.2-51.2h819.2c28.3 0 51.2 22.95 51.2 51.2v614.4c0 28.253-22.9 51.2-51.2 51.2zM204.8 448H512v-51.2H204.8V448zm409.6-204.8H204.8v51.2h409.6v-51.2zm256 307.2H716.8V704h153.6V550.4z"/><glyph unicode="" glyph-name="notifications-off" d="M962.56 69.12c10.24-10.24 10.24-25.6 0-35.84L926.72-2.56c-10.24-10.24-25.6-10.24-35.84 0L61.44 826.88c-10.24 10.24-10.24 25.6 0 35.84l35.84 35.84c10.24 10.24 25.6 10.24 35.84 0L962.56 69.12zM819.2 601.6c87.04 0 153.6 66.56 153.6 153.6s-66.56 153.6-153.6 153.6-153.6-66.56-153.6-153.6c0-87.04 66.56-153.6 153.6-153.6zM768 529.92V335.36l102.4-102.4v296.96c-15.36-5.12-35.84-5.12-51.2-5.12s-35.84 0-51.2 5.12zM593.92 704c-5.12 15.36-5.12 35.84-5.12 51.2s0 35.84 5.12 51.2H296.96L399.36 704h194.56zM256 192v368.64l-102.4 102.4V192c0-56.32 46.08-102.4 102.4-102.4h471.04L624.64 192H256z"/><glyph unicode="" glyph-name="remove-user" d="M818.637-19.405c0 114.995-111.974 173.517-221.03 220.518-108.698 46.797-143.411 86.221-143.411 170.701 0 50.637 33.178 34.15 47.718 127.027 6.144 38.502 35.43.614 41.062 88.525 0 35.021-16.026 43.725-16.026 43.725s8.141 51.866 11.315 91.802c3.277 41.83-20.378 131.072-117.811 158.464-16.998 17.459-28.518 45.158 23.91 72.909-114.688 5.325-141.363-54.682-202.445-98.816-51.968-38.707-65.997-99.994-63.488-132.608 3.328-39.936 11.418-91.802 11.418-91.802s-16.077-8.704-16.077-43.725c5.632-87.962 35.021-50.022 41.114-88.525 14.541-92.877 47.77-76.39 47.77-127.027 0-84.48-10.854-113.152-119.603-159.949C33.946 164.864 0 89.6.563-19.405.717-52.019 0-64 0-64h819.2s-.563 11.981-.563 44.595zm.563 465.408L701.491 568.781l-54.323-54.323L769.997 396.8 647.219 279.142l54.323-54.323L819.2 347.597l117.658-122.778 54.323 54.323L868.403 396.8l122.726 117.658-54.323 54.323L819.2 446.003z"/><glyph unicode="" glyph-name="select-arrows" d="M512 908.8 256 550.4h512L512 908.8zm0-921.6 256 358.4H256L512-12.8z"/><glyph unicode="" glyph-name="tablet-mobile-combo" d="M870.581 704H614.219C557.766 704 512 658.238 512 601.784V38.218c0-56.453 45.766-102.219 102.219-102.219h256.362c56.453 0 102.219 45.766 102.219 102.219v563.566C972.8 658.237 927.034 704 870.581 704zM742.4-12.8c-35.35 0-64 22.903-64 51.2 0 28.3 28.65 51.2 64 51.2 35.303 0 64-22.9 64-51.2 0-28.297-28.697-51.2-64-51.2zm128 153.6h-256v460.8h256V140.8zm-460.8 0h-256v716.8H768v-51.2h102.4v51.2c0 56.375-46.05 102.4-102.4 102.4H153.6c-56.3 0-102.4-46.025-102.4-102.4V38.4C51.2-17.9 97.3-64 153.6-64h284.425C420.425-33.8 409.6.825 409.6 38.225V140.8z"/><glyph unicode="" glyph-name="triangle-down" d="M256 652.8h512L512 192 256 652.8z"/><glyph unicode="" glyph-name="triangle-left" d="M716.8 704V192L256 448l460.8 256z"/><glyph unicode="" glyph-name="triangle-right" d="M768 448 307.2 192v512L768 448z"/><glyph unicode="" glyph-name="triangle-up" d="M768 243.2H256L512 704l256-460.8z"/><glyph unicode="" glyph-name="video-camera" d="M537.6 448c0-70.669-57.331-128-128-128-70.709 0-128 57.331-128 128s57.291 128 128 128c70.669 0 128-57.331 128-128zm281.6 307.2V140.8c0-56.3-46.1-102.4-102.4-102.4H102.4C46.1 38.4 0 84.5 0 140.8v614.4c0 56.3 46.1 102.4 102.4 102.4h614.4c56.3 0 102.4-46.1 102.4-102.4zM640 448c0 127.259-103.188 230.4-230.4 230.4-127.259 0-230.4-103.141-230.4-230.4s103.141-230.4 230.4-230.4C536.812 217.6 640 320.741 640 448zm343.816 251.616L870.4 624.007v-358.4l113.416-75.612c17.178-11.45 40.184.862 40.184 21.506V678.11c0 20.644-23.006 32.959-40.184 21.506z"/><glyph unicode="" glyph-name="warning" d="M998.963 39.424 542.925 890.982C536.576 901.99 524.8 908.8 512 908.8c-12.851 0-24.627-6.81-30.925-17.818L25.088 39.424a34.563 34.563 0 0 1 .256-34.816C31.744-6.195 43.366-12.8 55.962-12.8h912.077c12.544 0 24.269 6.605 30.618 17.408 6.349 10.701 6.451 24.013.307 34.816zM563.2 89.6H460.8V192h102.4V89.6zm0 179.2H460.8v332.8h102.4V268.8z"/><glyph unicode="" glyph-name="add-user" d="M818.637-19.405C819.2 89.6 706.714 154.112 597.607 201.113c-108.698 46.797-143.411 86.221-143.411 170.701 0 50.637 33.178 34.15 47.718 127.027 6.144 38.502 35.43.614 41.062 88.525 0 35.021-16.026 43.725-16.026 43.725s8.141 51.866 11.315 91.802c3.277 41.83-20.378 131.072-117.811 158.464-16.998 17.459-28.518 45.158 23.91 72.909-114.688 5.325-141.363-54.682-202.445-98.816-51.968-38.707-65.997-99.994-63.488-132.608 3.328-39.936 11.418-91.802 11.418-91.802s-16.077-8.704-16.077-43.725c5.632-87.962 35.021-50.022 41.114-88.525 14.541-92.877 47.77-76.39 47.77-127.027 0-84.48-10.854-113.152-119.603-159.949C33.946 164.864 0 89.6.563-19.405.717-52.019 0-64 0-64h819.2s-.717 11.981-.563 44.595zM870.4 448v153.6H768V448H614.4V345.6H768V192h102.4v153.6H1024V448H870.4z"/><glyph unicode="" glyph-name="address" d="m1013.709 695.552-121.6 93.696c-6.912 4.762-16.589 9.011-26.675 12.134-10.138 3.123-20.634 5.018-29.03 5.018H486.401l41.011-256h308.992c8.397 0 18.893 1.894 28.979 5.018s19.814 7.424 26.675 12.083l121.6 93.798c6.912 4.659 10.342 10.854 10.342 17.101s-3.43 12.442-10.291 17.152zM435.2 908.8H384c-14.131 0-25.6-11.469-25.6-25.6V704H187.597c-8.499 0-18.944-1.894-29.03-5.069-10.138-3.072-19.814-7.322-26.675-12.083l-121.6-93.696C3.38 588.493.001 582.246.001 576c0-6.195 3.379-12.39 10.291-17.152l121.6-93.798c6.861-4.659 16.538-8.96 26.675-12.032 10.086-3.123 20.531-5.018 29.03-5.018H358.4V12.8c0-14.131 11.469-25.6 25.6-25.6h51.2c14.131 0 25.6 11.469 25.6 25.6v870.4c0 14.131-11.469 25.6-25.6 25.6z"/><glyph unicode="" glyph-name="adjust" d="M972.8 489.011h-50.176c-28.314 0-51.2-18.381-51.2-41.011 0-22.579 22.886-40.909 51.2-40.909H972.8c28.262 0 51.2 18.278 51.2 40.909 0 22.579-22.989 41.011-51.2 41.011zM512 729.6c-156.211 0-281.6-125.389-281.6-281.6S355.789 166.4 512 166.4c156.16 0 281.6 125.389 281.6 281.6S668.109 729.6 512 729.6zm0-486.4c-113.203 0-204.8 91.699-204.8 204.8 0 113.203 91.597 204.8 204.8 204.8V243.2zM153.6 448c0 22.579-22.989 41.011-51.2 41.011H51.2C22.886 489.011 0 470.63 0 448c0-22.579 22.886-40.909 51.2-40.909h51.2c28.211 0 51.2 18.33 51.2 40.909zM512 806.4c22.579 0 40.909 22.886 40.909 51.2v51.2c0 28.314-18.33 51.2-40.909 51.2-22.63 0-41.011-22.886-41.011-51.2v-51.2c0-28.314 18.381-51.2 41.011-51.2zm0-716.8c-22.63 0-41.011-22.886-41.011-51.2v-51.2C470.989-41.114 489.37-64 512-64c22.579 0 40.909 22.886 40.909 51.2v51.2c0 28.314-18.33 51.2-40.909 51.2zm377.088 677.581c20.019 20.019 23.245 49.203 7.27 65.178s-45.21 12.698-65.126-7.322c-5.53-5.478-30.362-30.31-35.84-35.789-20.019-20.019-23.245-49.203-7.27-65.178s45.21-12.698 65.178 7.322c5.478 5.53 30.259 30.31 35.789 35.789zM170.701 164.71c-5.53-5.581-30.362-30.413-35.84-35.891-20.019-20.019-23.245-49.101-7.27-65.075s45.21-12.8 65.126 7.219c5.53 5.478 30.362 30.31 35.84 35.789 20.019 20.019 23.245 49.203 7.27 65.229s-45.21 12.646-65.126-7.27zm22.067 660.378c-19.968 20.019-49.203 23.296-65.178 7.322s-12.698-45.21 7.219-65.229c5.53-5.478 30.362-30.31 35.84-35.789 20.019-20.019 49.152-23.296 65.126-7.322s12.749 45.21-7.219 65.178c-5.478 5.53-30.259 30.362-35.789 35.84zm602.573-718.387c5.53-5.478 30.362-30.31 35.84-35.789 20.019-20.019 49.152-23.194 65.126-7.322 15.974 15.974 12.749 45.21-7.27 65.178l-35.789 35.789c-20.019 20.019-49.203 23.296-65.229 7.322s-12.698-45.158 7.322-65.178z"/><glyph unicode="" glyph-name="air" d="M135.322 634.522c89.446 76.8 160.102 137.523 351.846 29.184 92.109-52.019 166.4-71.68 228.198-71.578 108.288 0 178.483 60.211 239.155 112.282 21.658 18.586 24.422 51.61 6.246 73.677-18.278 22.118-50.534 24.986-72.192 6.4-89.395-76.902-160.102-137.626-351.846-29.184-253.338 143.002-372.019 41.114-467.354-40.806-21.606-18.586-24.371-51.507-6.195-73.677 18.227-22.016 50.483-24.934 72.141-6.298zm753.254-111.514c-89.395-76.8-160.102-137.626-351.846-29.184-253.338 143.104-372.019 41.165-467.354-40.704-21.606-18.586-24.422-51.61-6.195-73.677 18.176-22.118 50.483-24.986 72.141-6.4 89.446 76.851 160.102 137.574 351.846 29.286 92.109-52.122 166.4-71.68 228.198-71.68 108.288 0 178.483 60.211 239.155 112.384 21.658 18.586 24.422 51.61 6.246 73.626-18.227 22.17-50.534 24.934-72.192 6.349zm0-261.427c-89.395-76.902-160.102-137.626-351.846-29.286-253.338 143.104-372.019 41.216-467.354-40.704-21.606-18.586-24.422-51.61-6.195-73.677 18.176-22.118 50.483-24.883 72.141-6.298 89.446 76.8 160.102 137.472 351.846 29.184 92.109-52.019 166.4-71.68 228.198-71.68 108.288 0 178.483 60.314 239.155 112.384 21.658 18.586 24.422 51.61 6.246 73.677-18.227 22.118-50.534 24.934-72.192 6.4z"/><glyph unicode="" glyph-name="aircraft-landing" d="M960.102 138.854c-4.966-13.619-42.086-51.302-308.685 44.954L390.041 278.17c-90.982 32.819-219.034 84.429-269.21 113.51-35.123 20.326-42.803 65.638-42.803 65.638s-8.346 151.347-13.466 188.621c-5.12 37.274 4.864 43.674 40.755 25.19 22.323-11.52 95.488-131.174 126.157-182.63 77.414-19.507 146.534-38.963 178.842-48.589-13.158 87.91-37.888 252.314-46.746 303.77-8.499 49.306 28.16 27.392 28.16 27.392 16.947-9.728 50.33-33.843 61.747-51.302 77.926-119.091 188.006-337.92 196.403-354.714 45.875-14.336 116.582-37.53 158.822-52.736C919.089 272.435 966.756 156.979 960.1 138.854z"/><glyph unicode="" glyph-name="aircraft-take-off" d="M1017.344 629.606c6.093-13.158 6.502-66.048-250.061-186.47L515.737 325.069c-87.552-41.114-214.579-95.181-270.592-110.131-39.219-10.445-76.646 16.179-76.646 16.179S55.552 332.237 25.549 354.97c-29.952 22.733-27.392 34.304 11.008 46.592 23.91 7.629 160.256-25.242 218.368-39.936 68.557 40.96 131.174 76.083 160.819 92.058-71.475 52.89-205.21 151.654-247.859 181.76-40.909 28.928.512 39.322.512 39.322 18.842 5.069 59.494 11.674 79.974 7.373 139.315-29.133 371.866-106.035 389.683-111.923 42.598 22.323 108.954 55.91 149.606 75.008 106.24 49.869 221.542 1.894 229.683-15.616z"/><glyph unicode="" glyph-name="aircraft" d="M639.795 68.403c-20.173 56.115-92.416 244.48-122.368 322.406-56.474-37.734-119.501-73.472-179.814-98.714-18.739-65.536-56.013-189.901-74.035-206.49-30.925-28.518-42.598-24.832-47.36 14.285s-24.832 165.683-24.832 165.683-110.694 62.413-145.408 80.282-34.15 30.259 2.918 49.869c21.606 11.418 149.862 4.352 217.19-.256 44.083 48.691 98.867 96.358 153.242 137.165-62.208 55.091-212.48 188.16-257.741 226.509-39.731 33.69 4.045 40.806 4.045 40.806 19.968 3.584 62.566 6.758 83.354.461 129.229-39.066 329.83-105.882 376.986-121.651a37461.582 37461.582 0 0 1 59.494 42.035C926.208 891.289 986.88 853.555 998.349 837.017s25.754-87.091-214.989-257.638a52654.337 52654.337 0 0 1-59.392-42.138c-1.485-50.176-8.038-263.731-15.923-399.923-1.28-21.914-18.79-61.338-28.928-79.053-.051 0-21.658-39.168-39.322 10.138z"/><glyph unicode="" glyph-name="align-bottom" d="M665.6 396.8H563.2v409.6H460.8V396.8H358.4L512 243.2l153.6 153.6zM890.88 192H133.12c-28.262 0-30.72-22.886-30.72-51.2s2.458-51.2 30.72-51.2h757.76c28.262 0 30.72 22.886 30.72 51.2s-2.458 51.2-30.72 51.2z"/><glyph unicode="" glyph-name="align-horizontal-middle" d="M409.6 448 256 601.6V499.2H51.2V396.8H256V294.4L409.6 448zM768 294.4v102.4h204.8v102.4H768v102.4L614.4 448 768 294.4zm-256-256c28.314 0 51.2 2.509 51.2 30.72v757.76c0 28.314-22.886 30.72-51.2 30.72-28.262 0-51.2-2.406-51.2-30.72V69.12c0-28.211 22.938-30.72 51.2-30.72z"/><glyph unicode="" glyph-name="align-left" d="m307.2 448 153.6-153.6v102.4h409.6v102.4H460.8v102.4L307.2 448zM204.8 857.6c-28.314 0-51.2-2.406-51.2-30.72V69.12c0-28.211 22.886-30.72 51.2-30.72 28.262 0 51.2 2.509 51.2 30.72v757.76c0 28.314-22.938 30.72-51.2 30.72z"/><glyph unicode="" glyph-name="align-right" d="M563.2 601.6V499.2H153.6V396.8h409.6V294.4L716.8 448 563.2 601.6zM768 826.88V69.12c0-28.211 22.938-30.72 51.2-30.72 28.314 0 51.2 2.509 51.2 30.72v757.76c0 28.314-22.886 30.72-51.2 30.72-28.262 0-51.2-2.406-51.2-30.72z"/><glyph unicode="" glyph-name="align-top" d="M512 652.8 358.4 499.2h102.4V89.6h102.4v409.6h102.4L512 652.8zm409.6 102.4c0 28.314-2.458 51.2-30.72 51.2H133.12c-28.262 0-30.72-22.886-30.72-51.2s2.458-51.2 30.72-51.2h757.76c28.262 0 30.72 22.886 30.72 51.2z"/><glyph unicode="" glyph-name="align-vertical-middle" d="M512 345.6 358.4 192h102.4V-12.8h102.4V192h102.4L512 345.6zM665.6 704H563.2v204.8H460.8V704H358.4L512 550.4 665.6 704zm256-256c0 28.314-2.458 51.2-30.72 51.2H133.12c-28.262 0-30.72-22.886-30.72-51.2 0-28.211 2.458-51.2 30.72-51.2h757.76c28.262 0 30.72 22.989 30.72 51.2z"/><glyph unicode="" glyph-name="archive" d="M715.827 857.6H308.121s-50.995 0-50.995-51.2h509.696c0 51.2-50.995 51.2-50.995 51.2zM868.762 704c0 51.2-50.944 51.2-50.944 51.2H206.183s-50.944 0-50.944-51.2v-51.2h713.523V704zm101.888-51.2-30.106 30.31V601.6H83.456v81.51L53.299 652.8C23.142 622.49 1.536 614.4 13.67 550.4c12.083-63.795 70.605-413.491 79.309-460.8 9.523-51.917 62.31-51.2 62.31-51.2h713.523s52.736-.717 62.31 51.2c8.704 47.309 67.174 397.005 79.309 460.8 12.032 64-9.574 72.09-39.782 102.4zM716.8 345.754c0-28.365-22.989-51.354-51.354-51.354H358.553c-28.365 0-51.354 22.989-51.354 51.354V448h51.2V345.6h307.2V448h51.2V345.754z"/><glyph unicode="" glyph-name="area-graph" d="M1024 857.6V38.4H16.384C.102 38.4-4.915 49.101 5.325 62.208l228.813 294.298c10.189 13.107 28.314 14.49 40.397 3.174l72.653-68.301c12.032-11.315 29.286-9.114 38.246 4.915L541.44 538.982c8.96 13.978 26.061 15.974 37.939 4.608l111.155-107.315c11.878-11.52 28.621-9.216 37.069 5.12l262.81 398.592C998.912 854.425 1011.2 857.6 1024 857.6z"/><glyph unicode="" glyph-name="attachment" d="M286.822-53.76c-66.202 0-128.205 28.416-172.954 73.728-86.784 87.859-110.95 241.203 10.701 364.339a8239123.51 8239123.51 0 0 1 499.098 505.344c50.586 51.2 114.944 71.014 176.538 54.272 60.57-16.384 110.131-66.611 126.362-127.898 16.486-62.464-3.021-127.642-53.555-178.842L395.674 153.855c-27.238-27.597-58.061-43.93-88.986-47.206-30.669-3.277-59.904 6.656-80.384 27.392-37.069 37.683-42.394 108.39 19.354 170.854l335.258 339.456c13.773 13.926 36.096 13.926 49.869 0s13.773-36.557 0-50.483L295.476 254.361c-28.979-29.286-31.642-57.293-19.302-69.837 5.427-5.427 13.619-7.936 23.091-6.861 14.49 1.485 31.027 11.059 46.541 26.675l477.338 483.277c32.768 33.178 45.312 72.192 35.328 109.824-9.83 37.12-39.834 67.482-76.442 77.466-37.171 10.086-75.776-2.662-108.544-35.84-142.438-144.282-427.827-433.254-499.098-505.344-92.979-94.157-70.707-202.547-10.701-263.322 60.058-60.774 167.014-83.405 260.045 10.854L922.83 586.597c13.773 13.926 36.096 13.926 49.869 0s13.773-36.557 0-50.534L473.601 30.719c-58.829-59.494-124.723-84.48-186.778-84.48z"/><glyph unicode="" glyph-name="awareness-ribbon" d="M848.589 123.494c-38.758 53.811-145.971 195.789-233.984 312.627 35.635 51.149 64.051 92.928 77.056 114.79 79.104 132.813 44.749 218.112 1.126 290.304C649.062 913.458 642.15 955.186 512 955.186c-130.202 0-137.114-41.728-180.787-114.022-43.725-72.192-78.029-157.491 1.075-290.304 13.005-21.811 41.421-63.642 77.107-114.79-88.064-116.787-195.277-258.816-234.035-312.627-9.011-12.493-8.192-33.997.461-55.398 6.656-16.486 32.256-90.214 38.502-105.677 7.987-19.917 33.997-34.304 55.398-4.71 12.339 17.101 132.198 180.48 242.278 333.926C622.028 138.189 741.938-25.242 754.277-42.342c21.35-29.594 47.411-15.206 55.398 4.71 6.246 15.514 31.846 89.19 38.502 105.677 8.55 21.453 9.421 42.957.41 55.45zm-355.328 474.88c-54.682 75.981-93.798 164.403-93.798 164.403s21.504 38.81 112.538 38.81c91.034 0 112.538-38.81 112.538-38.81s-39.219-88.422-93.85-164.403c-4.506-6.195-11.162-15.206-18.688-25.446-7.629 10.24-14.285 19.251-18.739 25.446z"/><glyph unicode="" glyph-name="back-in-time" d="M563.2 867.891c-227.584 0-412.723-182.374-418.253-409.395V448H23.501l184.013-199.373L386.407 448H249.601v10.496c5.478 169.114 143.77 304.384 313.6 304.384 173.363 0 313.907-141.005 313.907-314.88S736.564 133.12 563.201 133.12c-69.478 0-133.683 22.784-185.702 61.082l-71.987-77.005c71.066-55.706 160.512-88.986 257.69-88.986 231.168 0 418.509 187.904 418.509 419.789S794.37 867.891 563.202 867.891zM512 704V448c0-6.656 1.382-13.312 3.942-19.558 2.611-6.246 6.349-11.93 11.059-16.64l163.84-163.84c14.49 9.37 28.16 19.917 40.294 32.154L614.399 396.801v307.2h-102.4z"/><glyph unicode="" glyph-name="back" d="M972.8 601.6V294.4c0-56.474-45.875-102.4-102.4-102.4H153.6v153.6h665.6v204.8H256V448L51.2 627.2 256 806.4V704h614.4c56.525 0 102.4-45.875 102.4-102.4z"/><glyph unicode="" glyph-name="bar-graph" d="M870.4 908.8H768c-28.262 0-51.2-22.886-51.2-51.2V-12.39h204.8V857.6c0 28.314-22.886 51.2-51.2 51.2zM563.2 601.6H460.8c-28.262 0-51.2-22.886-51.2-51.2V-12.39h204.8V550.4c0 28.314-22.886 51.2-51.2 51.2zM256 294.4H153.6c-28.262 0-51.2-22.886-51.2-51.2V-12.39h204.8V243.2c0 28.314-22.886 51.2-51.2 51.2z"/><glyph unicode="" glyph-name="battery" d="M788.89 448c0 141.619 65.382 221.184 116.582 221.184H972.8c-34.202 54.221-62.515 86.016-187.29 86.016H273.1C81.919 755.2-.001 579.021-.001 448S81.919 140.8 273.1 140.8h512.41c124.826 0 153.088 31.795 187.29 86.016h-67.328c-51.2 0-116.582 79.565-116.582 221.184zm-139.264-91.904c-8.397-12.8-34.611-.819-34.611-.819l-151.398 68.506s-13.517-34.304-23.91-58.419c-10.496-24.115-18.483-51.405-61.901-20.89-43.469 30.618-183.347 166.4-183.347 166.4s-17.664 14.541-8.858 28.211c8.346 12.902 34.611.819 34.611.819l151.347-68.403s13.568 34.202 23.962 58.317c10.496 24.064 18.483 51.507 61.901 20.89 43.469-30.515 183.296-166.4 183.296-166.4s17.664-14.49 8.909-28.211zm316.723 197.99H928c-28.621 0-56.576-38.605-56.576-101.325 0-62.822 28.006-101.376 56.576-101.376h38.349c28.672 0 57.651 38.605 57.651 101.376 0 62.72-28.979 101.325-57.651 101.325z"/><glyph unicode="" glyph-name="beamed-note" d="m870.4 908.8-.102-665.6c0-63.642-66.611-153.6-191.898-153.6-63.642 0-115.2 33.434-115.2 96 0 81.357 73.984 130.56 153.6 130.56 22.118 0 38.605-3.021 51.2-6.298v375.501l-358.4-65.178V140.799h-.102c0-63.642-66.611-153.6-191.898-153.6-63.642 0-115.2 33.434-115.2 96 0 81.357 73.984 130.56 153.6 130.56 22.118 0 38.605-3.021 51.2-6.298v598.938l563.2 102.4z"/><glyph unicode="" glyph-name="bell" d="M750.08 524.186C633.344 775.424 572.621 870.861 381.901 866.868c-67.942-1.382-51.661 49.254-103.475 30.054-51.712-19.2-7.322-47.309-60.262-90.778C69.582 684.134 83.252 571.29 152.167 302.336c29.03-113.306-69.99-118.835-30.822-228.608C149.966-6.349 360.91-39.885 583.425 42.65c222.566 82.586 362.803 246.477 334.182 326.554-39.168 109.824-118.323 49.203-167.526 154.982zm-190.771-413.85c-198.758-73.728-362.086-30.413-368.998-11.11-11.878 33.28 64.154 144.179 291.379 228.506s354.048 53.043 367.309 15.923c7.834-21.965-90.88-159.539-289.69-233.318zm-63.898 178.893c-103.885-38.554-176.077-82.637-222.874-122.317 32.922-29.901 94.566-37.171 155.955-14.387 78.182 28.928 126.259 95.539 107.264 148.685-.256.666-.563 1.178-.819 1.843-12.851-4.198-26.01-8.755-39.526-13.824z"/><glyph unicode="" glyph-name="blackboard" d="M129.997-64H307.2l71.987 189.338-151.859 51.405-97.331-240.742zm514.816 189.338L716.8-64h177.203l-97.331 240.742-151.859-51.405zM921.6 857.6H588.8L563.2 960H460.8l-25.6-102.4H102.4c-28.314 0-51.2-22.886-51.2-51.2V243.2c0-28.262 22.886-51.2 51.2-51.2h819.2c28.314 0 51.2 22.938 51.2 51.2v563.2c0 28.262-22.886 51.2-51.2 51.2z"/><glyph unicode="" glyph-name="block" d="M512 939.52C240.486 939.52 20.429 719.462 20.429 448 20.429 176.486 240.487-43.571 512-43.571c271.411 0 491.52 220.058 491.52 491.571 0 271.462-220.109 491.52-491.52 491.52zM122.829 448c0 214.886 174.182 389.12 389.12 389.12 93.645 0 179.507-33.126 246.63-88.218L211.046 201.369c-55.091 67.174-88.218 152.986-88.218 246.63zm389.12-389.069c-93.594 0-179.456 33.075-246.528 88.166l547.533 547.482C867.994 627.405 901.12 541.645 901.12 448c0-214.886-174.285-389.069-389.171-389.069z"/><glyph unicode="" glyph-name="book" d="M870.4 655.36V125.389c0-26.726-23.142-39.475-51.2-59.392-22.528-16.026-51.2 3.84-51.2 30.054v517.837c0 10.803-3.789 21.094-16.077 27.392S355.737 849.408 355.737 849.408c-6.195 2.304-33.229 19.354-69.274.819-34.253-17.613-52.89-36.762-57.651-45.773l418.816-229.478c11.11-5.837 17.971-14.848 17.971-26.419V-4.505c0-11.776-7.27-24.371-18.893-29.952-5.325-2.662-11.213-3.942-17.05-3.942-6.912 0-13.875 1.69-19.763 5.325-11.008 6.707-398.029 244.019-423.578 259.43-12.288 7.373-26.675 22.477-26.982 33.69l-5.734 526.643c0 10.138-1.178 28.006 14.797 52.838 35.686 55.501 160.205 118.63 223.232 85.914l460.749-233.216c11.11-5.734 18.022-17.203 18.022-36.864z"/><glyph unicode="" glyph-name="bookmark" d="M716.8 857.6V-12.8L512 192 307.2-12.8v870.4c0 28.314 29.952 52.224 51.2 51.2h307.2c35.277 1.024 51.2-22.886 51.2-51.2z"/><glyph unicode="" glyph-name="bookmarks" d="M768 960H563.2c-28.314 0-51.2-22.886-51.2-51.2l1.178-11.366c56.422 0 102.4-45.926 102.4-102.4V213.453L665.6 273.92 819.2 89.6v819.2c0 28.314-22.886 51.2-51.2 51.2zM461.978 806.4H256c-28.314 0-51.2-22.886-51.2-51.2V-64l153.6 184.32L512-64v819.2c0 28.314-21.709 51.2-50.022 51.2z"/><glyph unicode="" glyph-name="bowl" d="M867.789 577.434C756.378 428.852 658.125 423.732 507.034 416.052h-5.171c-183.859.102-314.266 68.403-314.266 93.798-.102 24.115 117.658 86.886 286.976 93.133l30.208 75.418c-.973 0-1.894.102-2.918.102-251.29 0-398.899-79.974-398.899-156.211v-102.4c0-47.002 29.798-458.189 388.198-458.189s409.6 411.187 409.6 458.189v102.4c0 20.019-10.291 40.294-29.901 59.29l-3.072-4.147zm32.768 244.224c-22.579 16.896-54.733 12.39-71.629-10.291l-184.73-246.221 119.603 298.906c10.547 26.214-2.253 56.013-28.518 66.611-26.01 10.496-56.115-2.202-66.56-28.621l-166.861-416.87c147.558 7.526 218.982 11.622 310.63 133.683 91.597 122.214 98.253 131.123 98.253 131.123 16.998 22.579 12.442 54.682-10.189 71.68z"/><glyph unicode="" glyph-name="box" d="M942.029 857.6H81.92c-16.998 0-30.72-13.67-30.72-30.72V704h921.6v122.88c0 17.05-13.824 30.72-30.771 30.72zM102.4 110.08c0-39.424 32.205-71.68 71.629-71.68h675.84c39.424 0 71.68 32.307 71.68 71.68V652.8H102.4V110.08zm256 440.32h307.2V448H358.4v102.4z"/><glyph unicode="" glyph-name="briefcase" d="M460.8 448h102.4V345.6H1024s-7.629 228.301-10.24 299.725c-2.56 67.891-26.88 109.875-102.4 109.875H747.11c-25.446 48.026-52.838 99.584-61.286 115.507-16.947 31.898-22.733 38.093-60.365 38.093h-226.97c-37.632 0-43.366-6.195-60.365-38.093-8.448-15.923-35.84-67.482-61.235-115.507H112.588c-75.571 0-99.584-41.984-102.4-109.875C7.423 577.383-.001 345.6-.001 345.6h460.8V448zm-69.171 362.701c11.776 22.118 15.77 26.419 41.83 26.419h157.03c26.061 0 30.106-4.301 41.779-26.419 4.403-8.192 16.282-30.72 29.44-55.501h-299.52c13.158 24.781 25.037 47.309 29.44 55.501zM563.2 192H460.8v102.4H25.6s6.349-92.006 10.189-170.086c1.587-32.41 11.162-85.914 92.16-85.914H896c80.998 0 90.368 53.606 92.16 85.914C992.614 204.596 998.4 294.4 998.4 294.4H563.2V192z"/><glyph unicode="" glyph-name="browser" d="M921.6 857.6H102.4C46.08 857.6 0 811.52 0 755.2V140.8C0 84.48 46.08 38.4 102.4 38.4h819.2c56.32 0 102.4 46.08 102.4 102.4v614.4c0 56.32-46.08 102.4-102.4 102.4zM230.4 768c21.197 0 38.4-17.203 38.4-38.4s-17.203-38.4-38.4-38.4-38.4 17.203-38.4 38.4 17.203 38.4 38.4 38.4zM89.6 729.6c0 21.197 17.203 38.4 38.4 38.4s38.4-17.203 38.4-38.4-17.203-38.4-38.4-38.4-38.4 17.203-38.4 38.4zm832-588.8H102.4v460.8h819.2V140.8zm0 563.2H307.2v51.2h615.373L921.6 704z"/><glyph unicode="" glyph-name="brush" d="M141.466 265.574C63.898 189.388 129.434 111.155 26.42-4.711-20.07-57.089 217.806-41.114 335.617 74.7c50.022 49.203 35.891 120.781-17.715 173.517-53.606 52.634-126.464 66.56-176.435 17.357zm858.931 660.685c-39.731 39.117-480.205-313.805-611.277-442.675-65.075-64-86.784-98.304-106.701-123.904-8.704-11.213 2.816-14.592 7.885-17.203 25.805-13.21 43.827-25.395 67.123-48.282 23.347-22.886 35.789-40.602 49.101-65.997 2.714-5.018 6.195-16.282 17.51-7.782 26.112 19.61 60.979 41.011 126.054 104.909 131.123 128.819 490.138 561.869 450.304 600.934z"/><glyph unicode="" glyph-name="bucket" d="M563.2 908.8c-251.29 0-409.498-81.51-398.848-151.04 3.072-19.917 11.52-99.584 22.221-167.578C63.437 542.361 22.631 464.793 28.109 401.561c6.502-74.803 73.779-154.88 221.594-168.704 84.378-7.885 185.907 38.4 251.699 117.504a71.288 71.288 0 0 0-9.882 36.198c0 39.629 32.102 71.68 71.68 71.68 39.629 0 71.68-32.102 71.68-71.68 0-39.014-31.232-70.707-70.093-71.578-78.285-101.018-197.53-161.997-310.477-154.88 2.611-16.589 3.584-48.486 4.915-56.986C263.833 73.47 379.391-12.597 563.199-12.802c183.808.205 299.366 86.272 304.026 115.866 4.506 29.542 84.019 584.141 94.822 654.694 10.65 69.53-147.61 151.04-398.848 151.04zM99.482 407.808c-2.816 32.922 23.296 76.698 98.509 109.517a307019.86 307019.86 0 0 1 32.922-208.589c-82.125 16.026-127.898 58.829-131.43 99.072zM563.2 651.571c-183.808.102-314.214 68.301-314.214 93.798-.102 25.293 130.406 91.648 314.214 91.546 183.808.102 314.317-66.253 314.214-91.546 0-25.498-130.406-93.696-314.214-93.798z"/><glyph unicode="" glyph-name="cake" d="M490.701 650.957c99.942 0 132.659 70.707 94.157 145.562-44.595 86.682 97.024 161.536 26.675 161.536-66.611 0-191.283-72.602-214.528-162.97-17.357-67.789 15.155-144.128 93.696-144.128zm266.854-458.291-22.733 19.61c-24.934 21.504-64 21.402-88.832 0l-22.63-19.558c-31.744-27.341-71.526-41.011-111.309-41.011s-79.565 13.67-111.258 40.96l-22.733 19.661c-24.934 21.402-63.949 21.453-88.781-.051l-22.733-19.61c-61.082-52.634-151.91-54.067-215.245-5.12V-12.799c0-28.262 22.938-51.2 51.2-51.2h819.2c28.262 0 51.2 22.938 51.2 51.2v200.294c-63.334-48.845-154.163-47.565-215.347 5.171zM512 601.6c-387.789 0-460.8-172.083-460.8-256v-24.013l59.597-51.354c24.883-21.555 63.949-21.35 88.832 0l22.733 19.61c63.334 54.528 158.976 54.579 222.464 0l22.733-19.661c24.781-21.35 63.744-21.504 88.832.051l22.63 19.558c63.488 54.63 159.078 54.63 222.515.051l22.733-19.61c24.934-21.555 64-21.35 88.832 0l59.699 51.354v24.013c0 83.917-73.011 256-460.8 256z"/><glyph unicode="" glyph-name="calculator" d="M747.52 908.8H276.378c-39.373 0-71.578-32.205-71.578-71.68V58.88c0-39.424 32.205-71.68 71.578-71.68H747.52c39.373 0 71.68 32.307 71.68 71.68v778.24c0 39.475-32.307 71.68-71.68 71.68zM358.4 345.6c35.277 0 64-22.886 64-51.2s-28.723-51.2-64-51.2c-35.328 0-64 22.886-64 51.2s28.672 51.2 64 51.2zm-64 102.4c0 28.314 28.672 51.2 64 51.2 35.277 0 64-22.886 64-51.2s-28.723-51.2-64-51.2c-35.328 0-64 22.886-64 51.2zm64-256c35.277 0 64-22.886 64-51.2s-28.723-51.2-64-51.2c-35.328 0-64 22.886-64 51.2s28.672 51.2 64 51.2zM512 345.6c35.277 0 64-22.886 64-51.2s-28.723-51.2-64-51.2c-35.328 0-64 22.886-64 51.2s28.672 51.2 64 51.2zM448 448c0 28.314 28.672 51.2 64 51.2 35.277 0 64-22.886 64-51.2s-28.723-51.2-64-51.2c-35.328 0-64 22.886-64 51.2zm64-256c35.277 0 64-22.886 64-51.2s-28.723-51.2-64-51.2c-35.328 0-64 22.886-64 51.2s28.672 51.2 64 51.2zm153.6 153.6c35.277 0 64-22.886 64-51.2s-28.723-51.2-64-51.2c-35.328 0-64 22.886-64 51.2s28.672 51.2 64 51.2zm-64 102.4c0 28.314 28.672 51.2 64 51.2 35.277 0 64-22.886 64-51.2s-28.723-51.2-64-51.2c-35.328 0-64 22.886-64 51.2zm64-256c35.277 0 64-22.886 64-51.2s-28.723-51.2-64-51.2c-35.328 0-64 22.886-64 51.2s28.672 51.2 64 51.2zM256 601.6v153.6h512V601.6H256z"/><glyph unicode="" glyph-name="calendar" d="M870.4 806.4h-51.2V704H665.6v102.4H358.4V704H204.8v102.4h-51.2c-56.371 0-102.4-46.08-102.4-102.4V89.6c0-56.32 46.029-102.4 102.4-102.4h716.8c56.32 0 102.4 46.08 102.4 102.4V704c0 56.32-46.08 102.4-102.4 102.4zm0-716.8H153.6v409.6h716.8V89.6zM332.8 908.8H230.4V729.6h102.4v179.2zm460.8 0H691.2V729.6h102.4v179.2z"/><glyph unicode="" glyph-name="camera" d="M512 550.4c-84.838 0-153.6-68.813-153.6-153.6S427.162 243.2 512 243.2c84.787 0 153.6 68.813 153.6 153.6S596.787 550.4 512 550.4zM921.6 704H798.72c-16.896 0-35.123 13.107-40.397 29.184l-31.795 95.283c-5.376 16.026-23.501 29.133-40.448 29.133H337.92c-16.896 0-35.123-13.107-40.397-29.082l-31.846-95.334C260.352 717.107 242.176 704 225.28 704H102.4C46.08 704 0 657.92 0 601.6V140.8C0 84.48 46.08 38.4 102.4 38.4h819.2c56.32 0 102.4 46.08 102.4 102.4v460.8c0 56.32-46.08 102.4-102.4 102.4zM512 140.8c-141.414 0-256 114.586-256 256s114.586 256 256 256c141.363 0 256-114.586 256-256s-114.637-256-256-256zm384 399.36c-19.814 0-35.84 16.077-35.84 35.891 0 19.712 16.026 35.84 35.84 35.84s35.84-16.077 35.84-35.84c0-19.814-16.026-35.891-35.84-35.891z"/><glyph unicode="" glyph-name="ccw" d="M35.072 448h121.446v10.496c5.53 227.021 190.669 409.395 418.253 409.395 231.168 0 418.509-188.006 418.509-419.891S805.939 28.211 574.771 28.211c-97.178 0-186.624 33.28-257.69 88.986l71.987 77.005c52.019-38.298 116.224-61.082 185.702-61.082 173.363 0 313.907 141.005 313.907 314.88S748.133 762.88 574.77 762.88c-169.83 0-308.122-135.322-313.6-304.384V448h136.806L219.083 248.627 35.07 448z"/><glyph unicode="" glyph-name="chat" d="M296.96 335.36V652.8H102.4C46.08 652.8 0 606.72 0 550.4V243.2c0-56.32 46.08-102.4 102.4-102.4h51.2V-12.8l153.6 153.6h256c56.32 0 102.4 46.08 102.4 102.4v93.184c-3.277-.717-6.758-1.075-10.24-1.075l-358.4.051zM921.6 908.8H460.8c-56.32 0-102.4-46.08-102.4-102.4V396.8h358.4l153.6-153.6v153.6h51.2c56.32 0 102.4 46.029 102.4 102.4v307.2c0 56.32-46.08 102.4-102.4 102.4z"/><glyph unicode="" glyph-name="check" d="M424.653 89.702c-22.272 0-43.366 10.394-56.883 28.314L184.832 359.731c-23.808 31.386-17.613 76.083 13.824 99.891 31.488 23.91 76.186 17.613 99.994-13.824l120.371-158.925 302.643 485.99c20.838 33.382 64.87 43.622 98.355 22.784 33.434-20.787 43.725-64.819 22.835-98.304L485.273 123.391c-12.39-20.019-33.843-32.512-57.344-33.587-1.126-.102-2.15-.102-3.277-.102z"/><glyph unicode="" glyph-name="circle-with-cross" d="M512 878.08C274.483 878.08 81.92 685.517 81.92 448S274.483 17.92 512 17.92 942.08 210.483 942.08 448 749.517 878.08 512 878.08zm245.197-586.803-88.525-88.525L512 359.475 355.277 202.803l-88.525 88.525L423.526 448 266.803 604.723l88.525 88.474L512 536.525l156.723 156.723 88.525-88.525L600.474 448l156.723-156.723z"/><glyph unicode="" glyph-name="circle-with-minus" d="M512 878.08C274.483 878.08 81.92 685.517 81.92 448S274.483 17.92 512 17.92 942.08 210.483 942.08 448 749.517 878.08 512 878.08zM768 396.8H256v102.4h512V396.8z"/><glyph unicode="" glyph-name="circle-with-plus" d="M512 878.08C274.483 878.08 81.92 685.517 81.92 448S274.483 17.92 512 17.92 942.08 210.483 942.08 448 749.517 878.08 512 878.08zM768 396.8H563.2V192H460.8v204.8H256v102.4h204.8V704h102.4V499.2H768V396.8z"/><glyph unicode="" glyph-name="circle" d="M512 939.52C240.538 939.52 20.48 719.462 20.48 448S240.538-43.52 512-43.52c271.411 0 491.52 220.058 491.52 491.571 0 271.411-220.109 491.469-491.52 491.469zm0-880.589c-214.886 0-389.12 174.182-389.12 389.12S297.062 837.12 512 837.12c214.886 0 389.171-174.182 389.171-389.12S726.886 58.931 512 58.931z"/><glyph unicode="" glyph-name="circular-graph" d="M900.301 480.154h102.4c-3.328 53.709-15.002 105.114-34.202 152.781l-89.907-51.917c11.469-31.898 18.995-65.69 21.709-100.864zm-178.33 413.542c-48.896 23.091-101.888 38.758-158.003 44.544V834.765c37.53-4.966 73.37-15.104 106.701-29.952l51.302 88.883zM831.59 672.154l89.139 51.456c-30.259 44.954-68.096 84.224-111.206 116.992l-51.507-89.19c28.109-22.835 52.787-49.562 73.574-79.258zM512.717 60.365c-214.886 0-389.12 174.182-389.12 389.12 0 197.53 147.302 360.243 337.971 385.331v103.475c-247.45-25.6-440.371-234.65-440.371-488.806 0-271.514 220.058-491.571 491.571-491.571 246.989 0 450.918 182.426 485.683 419.84H894.976C861.286 197.172 703.078 60.365 512.717 60.365z"/><glyph unicode="" glyph-name="clapperboard" d="M1024 806.4V89.6c0-28.262-22.886-51.2-51.2-51.2H51.2C22.886 38.4 0 61.338 0 89.6v716.8c0 28.314 22.886 51.2 51.2 51.2h51.2L256 704h128L230.4 857.6H384L537.6 704h128L512 857.6h153.6L819.2 704h128L793.6 857.6h179.2c28.314 0 51.2-22.938 51.2-51.2z"/><glyph unicode="" glyph-name="clipboard" d="M798.72 857.6 737.28 704H286.72l-61.44 153.6c-39.475 0-71.68-32.205-71.68-71.68V7.68c0-39.424 32.205-71.68 71.629-71.68h573.44c39.424 0 71.68 32.307 71.68 71.68v778.24c.051 39.475-32.256 71.68-71.629 71.68zm-102.4-102.4 46.08 102.4H630.733L593.92 960H430.08l-36.864-102.4H281.6l46.029-102.4H696.32z"/><glyph unicode="" glyph-name="clock" d="M512 939.52C240.486 939.52 20.429 719.462 20.429 448 20.429 176.486 240.487-43.571 512-43.571c271.411 0 491.52 220.058 491.52 491.571 0 271.462-220.109 491.52-491.52 491.52zm-.051-880.64c-214.886 0-389.12 174.182-389.12 389.12 0 214.886 174.182 389.12 389.12 389.12 214.886 0 389.171-174.182 389.171-389.12 0-214.886-174.285-389.12-389.171-389.12zM563.2 482.304V755.2H460.8V435.456L279.245 330.598l51.2-88.678 210.688 121.702c12.186 7.014 22.067 24.218 22.067 38.298v8.602l217.088 213.299c-10.138 13.875-21.043 27.085-33.126 39.219L563.2 482.304z"/><glyph unicode="" glyph-name="cloud" d="M1024 380.416C1024 248.115 914.227 140.8 778.906 140.8H185.191C82.893 140.8.001 221.901.001 321.894c0 99.891 82.893 180.992 185.19 180.992 7.475 0 14.746-.614 21.965-1.382a259.929 259.929 0 0 0-2.918 38.707c0 146.995 121.907 266.189 272.384 266.189 123.238 0 227.277-79.974 260.915-189.798a255.926 255.926 0 0 0 41.421 3.379c135.27 0 245.043-107.162 245.043-239.565z"/><glyph unicode="" glyph-name="code" d="M292.813 204.8c-12.083 0-24.269 4.25-33.997 12.902L-.256 448l273.459 243.098c21.094 18.688 53.453 16.896 72.243-4.25s16.896-53.504-4.25-72.294L153.855 448l172.954-153.702c21.146-18.79 23.04-51.149 4.25-72.294-10.086-11.418-24.166-17.203-38.246-17.203zm457.984.102L1024.256 448 765.184 678.298c-21.146 18.79-53.504 16.896-72.243-4.25-18.79-21.146-16.896-53.504 4.25-72.294L870.145 448 682.804 281.498c-21.146-18.79-23.04-51.149-4.25-72.294 10.086-11.418 24.166-17.203 38.246-17.203 12.083 0 24.269 4.25 33.997 12.902zm-239.514-72.55 102.4 614.4c4.659 27.904-14.182 54.272-42.086 58.931-28.006 4.71-54.323-14.182-58.88-42.086l-102.4-614.4c-4.659-27.904 14.182-54.272 42.086-58.931a52.627 52.627 0 0 1 8.448-.666c24.576 0 46.285 17.766 50.432 42.752z"/><glyph unicode="" glyph-name="cog" d="M859.29 448c0 53.709 33.075 96 82.79 125.082-9.011 29.901-20.838 58.624-35.43 85.606-55.757-14.592-100.864 7.219-138.803 45.21-37.939 37.888-49.562 82.995-34.97 138.803a447.048 447.048 0 0 1-85.606 35.379c-29.082-49.664-81.664-82.688-135.27-82.688-53.658 0-106.189 33.024-135.322 82.688-29.952-8.858-58.573-20.787-85.555-35.379 14.592-55.808 3.021-100.915-35.021-138.803-37.888-37.99-82.995-59.802-138.803-45.21-14.592-26.982-26.47-55.706-35.379-85.606C131.585 544 164.609 501.709 164.609 448c0-53.606-33.024-106.189-82.688-135.322 8.96-29.901 20.787-58.573 35.379-85.606 55.808 14.592 100.915 3.021 138.803-34.918 37.939-37.99 49.613-83.098 35.021-138.803 26.982-14.592 55.654-26.522 85.606-35.482 29.082 49.818 81.664 82.79 135.322 82.79 53.606 0 106.189-33.024 135.322-82.79 29.901 9.011 58.573 20.89 85.606 35.482-14.592 55.706-3.021 100.813 34.97 138.803 37.939 37.888 83.046 59.699 138.803 45.21 14.592 26.982 26.47 55.603 35.43 85.606-49.818 29.133-82.893 71.424-82.893 125.03zM512 261.018c-103.322 0-187.034 83.712-187.034 186.982 0 103.322 83.763 187.085 187.034 187.085 103.322 0 186.982-83.814 186.982-187.085 0-103.322-83.661-186.982-186.982-186.982z"/><glyph unicode="" glyph-name="colours" d="M162.765 652.902c-21.658 17.92-54.118 14.848-72.09-6.758l-65.382-78.797c-17.92-21.658-14.899-54.17 6.707-72.038l403.866-334.95-194.918 427.725-78.182 64.819zM359.066 822.63l-93.184-42.445c-25.549-11.674-36.966-42.24-25.344-67.789l217.6-477.44 10.906 469.965-42.086 92.365c-11.776 25.6-42.291 37.018-67.891 25.344zm368.537-10.444c.666 28.16-21.862 51.712-49.971 52.378l-102.4 2.355c-28.109.666-51.661-21.862-52.326-49.971l-12.237-524.442 214.528 418.15 2.406 101.53zm254.976-48.64-91.085 46.746c-25.037 12.8-56.115 2.816-68.966-22.221L495.309 150.324c-12.851-25.037-2.867-56.115 22.221-68.966l91.085-46.746c25.037-12.851 56.064-2.867 68.915 22.17l327.219 637.747c12.851 25.139 2.867 56.166-22.17 69.018zm-327.27-637.748c-12.902-25.19-43.776-35.123-68.915-22.221-25.19 12.902-35.072 43.725-22.17 68.915s43.725 35.072 68.915 22.17c25.19-12.851 35.072-43.725 22.17-68.864z"/><glyph unicode="" glyph-name="compass" d="M279.245 215.142s233.882 32.102 333.722 131.891 131.891 333.722 131.891 333.722-233.933-32.102-333.722-131.891-131.891-333.722-131.891-333.722zm182.425 283.29c41.882 41.882 122.112 71.68 190.925 90.214-18.483-68.71-48.384-149.504-90.112-191.078-27.802-27.904-73.011-27.904-100.813 0-27.904 27.802-27.904 72.96 0 100.864zm50.381 441.088C240.537 939.52 20.48 719.462 20.48 448c0-271.514 220.058-491.571 491.571-491.571 271.411 0 491.52 220.058 491.52 491.571 0 271.462-220.109 491.52-491.52 491.52zM512 58.88c-214.886 0-389.12 174.182-389.12 389.12 0 214.886 174.182 389.12 389.12 389.12 214.886 0 389.171-174.182 389.171-389.12 0-214.886-174.285-389.12-389.171-389.12z"/><glyph unicode="" glyph-name="controller-fast-forward" d="M473.293 472.576 104.499 725.965c-29.286 19.61-53.299 5.222-53.299-32V201.984c0-37.12 24.013-51.507 53.299-32l368.794 253.491s14.285 10.189 14.285 24.474c0 14.336-14.285 24.627-14.285 24.627zm479.027-24.627c0-14.285-14.285-24.474-14.285-24.474L569.241 169.984c-29.286-19.507-53.299-5.12-53.299 32v491.981c0 37.222 24.013 51.61 53.299 32l368.742-253.389s14.336-10.291 14.336-24.627z"/><glyph unicode="" glyph-name="controller-jump-to-start" d="M765.901 725.965 397.107 472.576s-14.285-10.291-14.285-24.627 14.285-24.525 14.285-24.525l368.794-253.491c29.286-19.456 53.299-5.069 53.299 32.051v491.981c0 37.222-24.013 51.61-53.299 32zM307.2 755.2H256c-28.314 0-51.2-2.458-51.2-30.72V171.52c0-28.262 22.886-30.72 51.2-30.72h51.2c28.314 0 51.2 2.458 51.2 30.72v552.96c0 28.262-22.886 30.72-51.2 30.72z"/><glyph unicode="" glyph-name="controller-next" d="M626.893 472.576 258.099 725.965c-29.286 19.61-53.299 5.222-53.299-32V201.984c0-37.12 24.013-51.507 53.299-32l368.794 253.491s14.285 10.189 14.285 24.474c0 14.336-14.285 24.627-14.285 24.627zM716.8 755.2H768c28.314 0 51.2-2.458 51.2-30.72V171.52c0-28.262-22.886-30.72-51.2-30.72h-51.2c-28.314 0-51.2 2.458-51.2 30.72v552.96c0 28.262 22.886 30.72 51.2 30.72z"/><glyph unicode="" glyph-name="controller-paus" d="M768 806.4H665.6c-28.314 0-51.2-2.458-51.2-30.72V120.32c0-28.262 22.886-30.72 51.2-30.72H768c28.314 0 51.2 2.458 51.2 30.72v655.36c0 28.262-22.886 30.72-51.2 30.72zm-409.6 0H256c-28.314 0-51.2-2.458-51.2-30.72V120.32c0-28.262 22.886-30.72 51.2-30.72h102.4c28.314 0 51.2 2.458 51.2 30.72v655.36c0 28.262-22.886 30.72-51.2 30.72z"/><glyph unicode="" glyph-name="controller-play" d="M768 447.949c0-15.309-15.616-26.317-15.616-26.317L314.061 150.118C282.112 129.177 256 144.691 256 184.371v527.206c0 39.782 26.112 55.194 58.112 34.304l438.323-271.616c-.051 0 15.565-11.008 15.565-26.317z"/><glyph unicode="" glyph-name="controller-record" d="M512 806.4c-197.939 0-358.4-160.41-358.4-358.4 0-197.888 160.461-358.4 358.4-358.4S870.4 250.112 870.4 448c0 197.99-160.461 358.4-358.4 358.4z"/><glyph unicode="" glyph-name="controller-stop" d="M819.2 704.256v-502.17c0-33.843-27.443-61.286-61.235-61.286H255.847c-28.211 0-51.046 22.835-51.046 51.046v502.118c0 33.792 27.443 61.235 61.235 61.235h502.17c28.16 0 50.995-22.835 50.995-50.944z"/><glyph unicode="" glyph-name="controller-volume" d="M972.8 253.184c0-33.638-27.546-61.184-61.184-61.184H78.49c-45.056 0-50.278 18.995-11.725 42.086l835.738 463.616c38.656 23.194 70.298 5.325 70.298-39.782V253.184z"/><glyph unicode="" glyph-name="copy" d="M563.2 960H153.6c-28.314 0-51.2-22.886-51.2-51.2V294.4c0-28.262 22.886-51.2 51.2-51.2h256V140.8H512v102.4H409.651v102.4H512V448H409.6V345.6H204.8v512H512V652.8h102.4v256c0 28.262-22.886 51.2-51.2 51.2zM409.6 601.6v-51.2H512v102.4h-51.2c-28.314 0-51.2-22.886-51.2-51.2zM614.4-64h102.4V38.4H614.4V-64zm0 614.4h102.4v102.4H614.4V550.4zM409.6-12.8c0-28.262 22.886-51.2 51.2-51.2H512V38.4H409.6v-51.2zm460.8 665.6h-51.2V550.4h102.4v51.2c0 28.262-22.886 51.2-51.2 51.2zM819.2-64h51.2c28.314 0 51.2 22.938 51.2 51.2v51.2H819.2V-64zm0 409.6h102.4V448H819.2V345.6zm0-204.8h102.4v102.4H819.2V140.8z"/><glyph unicode="" glyph-name="credit-card" d="M921.6 806.4H102.4C46.029 806.4 0 760.32 0 704V192C0 135.68 46.029 89.6 102.4 89.6h819.2c56.32 0 102.4 46.08 102.4 102.4v512c0 56.32-46.08 102.4-102.4 102.4zm0-614.4H102.4v307.2h819.2V192zm0 460.8H102.4V704h819.2v-51.2zM204.8 391.68v-30.72h30.72v30.72H204.8zm184.32-61.389V299.52h61.44v30.771h30.72v30.72H512v30.72h-61.44v-30.72h-30.771v-30.72H389.12zM512 299.52v30.771h-30.771V299.52H512zm-153.6 0v30.771h-61.44V299.52h61.44zm30.72 61.491h30.72v30.72H358.4v-61.389h30.72v30.669zm-122.931-30.72h30.771v30.72h30.72v30.72h-61.44v-30.72h-30.72v-30.72H204.8V299.52h61.389v30.771z"/><glyph unicode="" glyph-name="credit" d="M563.2 102.144V-12.8H460.8V96.922c-87.654 5.12-156.979 30.157-217.139 92.006l87.962 89.088c43.981-44.544 103.578-59.392 168.038-59.392 80.128 0 123.136 30.669 123.136 87.142 0 24.73-6.81 45.517-21.504 59.392-13.67 12.851-29.286 19.814-61.542 24.73l-84.07 11.878c-59.597 8.909-103.526 27.699-134.861 58.419-33.178 33.638-49.818 79.155-49.818 138.598 0 110.336 70.758 191.642 189.798 209.92v100.096h102.4v-98.918c70.758-7.424 126.208-31.744 174.848-79.411l-85.965-86.118c-43.981 42.598-96.717 48.486-142.694 48.486-72.294 0-107.469-40.55-107.469-89.088 0-17.818 5.888-36.659 20.531-50.483 13.67-12.902 36.147-23.757 64.512-27.699l82.022-11.878c63.539-8.909 103.578-26.726 132.915-54.426 37.171-35.635 53.76-87.142 53.76-149.504 0-115.2-80.23-187.494-192.461-207.616z"/><glyph unicode="" glyph-name="cross" d="M734.618 199.731c-24.013-24.013-62.925-24.013-86.886 0L512.001 354.867 376.27 199.782c-24.013-24.013-62.925-24.013-86.886 0-24.013 24.013-24.013 62.925 0 86.886l141.21 161.28L289.333 609.33c-24.013 24.013-24.013 62.874 0 86.886s62.874 24.013 86.886 0l135.782-155.187 135.731 155.187c24.013 24.013 62.874 24.013 86.886 0s24.013-62.925 0-86.886l-141.21-161.382 141.21-161.28c24.013-24.013 24.013-62.925 0-86.938z"/><glyph unicode="" glyph-name="cup" d="M512 908.8c-219.085 0-355.328-72.192-347.904-130.816l73.83-689.51C240.896 64.922 351.641-12.697 512-12.8c160.307.102 271.104 77.722 273.971 101.325l73.83 689.51C867.225 836.608 731.084 908.8 511.999 908.8zm0-219.699c-160.358.102-274.074 57.19-274.074 78.592-.051 21.197 113.766 78.387 274.074 78.285 160.307.102 274.125-57.088 273.971-78.285 0-21.402-113.664-78.49-273.971-78.592z"/><glyph unicode="" glyph-name="cw" d="M988.928 448H867.482v10.496c-5.53 227.021-190.669 409.395-418.253 409.395C218.061 867.891 30.72 679.885 30.72 448S218.061 28.211 449.229 28.211c97.178 0 186.624 33.28 257.69 88.986l-71.987 77.005c-52.019-38.298-116.224-61.082-185.702-61.082-173.363 0-313.907 141.005-313.907 314.88S275.867 762.88 449.23 762.88c169.83 0 308.122-135.322 313.6-304.384V448H626.024l178.893-199.373L988.93 448z"/><glyph unicode="" glyph-name="cycle" d="M282.419 231.731c-115.814 124.518-113.766 319.693 6.554 440.883 49.254 49.613 110.797 79.206 174.797 88.883l-3.533 106.342c-89.856-10.906-176.742-50.995-245.606-120.371-161.229-162.304-163.174-424.397-6.298-590.387l-89.139-89.702 282.112-15.411-.768 298.701L282.42 231.731zm340.327 612.301.768-298.701 118.118 118.886c115.814-124.621 113.766-319.795-6.554-440.883-49.203-49.613-110.797-79.206-174.797-88.883l3.533-106.291c89.856 10.906 176.742 50.995 245.658 120.32 161.178 162.406 163.123 424.499 6.246 590.387l89.139 89.805-282.112 15.36z"/><glyph unicode="" glyph-name="database" d="M856.371 312.781C813.209 242.995 675.379 191.898 512 191.898s-301.21 51.098-344.422 120.883c-9.114 14.848-13.978 6.912-13.978-.358V209.921c0-99.328 160.461-202.24 358.4-202.24S870.4 110.593 870.4 209.87v102.502c0 7.322-4.915 15.258-14.029.41zm.563 261.939C814.438 513.024 676.096 467.712 512 467.712S209.51 513.024 167.014 574.72c-8.755 12.698-13.414 5.786-13.414.102V454.144c0-90.214 160.461-163.277 358.4-163.277s358.4 73.114 358.4 163.277v120.678c0 5.683-4.71 12.595-13.466-.102zM512 908.8c-197.939 0-358.4-60.416-358.4-134.81v-64.512c0-78.899 160.461-142.899 358.4-142.899s358.4 64 358.4 142.899v64.512c0 74.394-160.461 134.81-358.4 134.81z"/><glyph unicode="" glyph-name="dial-pad" d="M307.2 960H204.8c-28.262 0-51.2-22.938-51.2-51.2V806.4c0-28.262 22.938-51.2 51.2-51.2h102.4c28.262 0 51.2 22.938 51.2 51.2v102.4c0 28.262-22.938 51.2-51.2 51.2zm256 0H460.8c-28.262 0-51.2-22.938-51.2-51.2V806.4c0-28.262 22.938-51.2 51.2-51.2h102.4c28.262 0 51.2 22.938 51.2 51.2v102.4c0 28.262-22.938 51.2-51.2 51.2zm256 0H716.8c-28.262 0-51.2-22.938-51.2-51.2V806.4c0-28.262 22.938-51.2 51.2-51.2h102.4c28.262 0 51.2 22.938 51.2 51.2v102.4c0 28.262-22.938 51.2-51.2 51.2zm-512-256H204.8c-28.262 0-51.2-22.938-51.2-51.2V550.4c0-28.262 22.938-51.2 51.2-51.2h102.4c28.262 0 51.2 22.938 51.2 51.2v102.4c0 28.262-22.938 51.2-51.2 51.2zm256 0H460.8c-28.262 0-51.2-22.938-51.2-51.2V550.4c0-28.262 22.938-51.2 51.2-51.2h102.4c28.262 0 51.2 22.938 51.2 51.2v102.4c0 28.262-22.938 51.2-51.2 51.2zm256 0H716.8c-28.262 0-51.2-22.938-51.2-51.2V550.4c0-28.262 22.938-51.2 51.2-51.2h102.4c28.262 0 51.2 22.938 51.2 51.2v102.4c0 28.262-22.938 51.2-51.2 51.2zm-512-256H204.8c-28.262 0-51.2-22.938-51.2-51.2V294.4c0-28.262 22.938-51.2 51.2-51.2h102.4c28.262 0 51.2 22.938 51.2 51.2v102.4c0 28.262-22.938 51.2-51.2 51.2zm256 0H460.8c-28.262 0-51.2-22.938-51.2-51.2V294.4c0-28.262 22.938-51.2 51.2-51.2h102.4c28.262 0 51.2 22.938 51.2 51.2v102.4c0 28.262-22.938 51.2-51.2 51.2zm0-307.2H460.8c-28.262 0-51.2-22.938-51.2-51.2V-12.8c0-28.262 22.938-51.2 51.2-51.2h102.4c28.262 0 51.2 22.938 51.2 51.2V89.6c0 28.262-22.938 51.2-51.2 51.2zm256 307.2H716.8c-28.262 0-51.2-22.938-51.2-51.2V294.4c0-28.262 22.938-51.2 51.2-51.2h102.4c28.262 0 51.2 22.938 51.2 51.2v102.4c0 28.262-22.938 51.2-51.2 51.2z"/><glyph unicode="" glyph-name="direction" d="M924.672 860.621c-30.003 30.003-58.573 1.69-155.699-45.005C509.133 690.739 56.32 436.941 56.32 436.941l389.069-55.501L500.941-7.629s253.85 452.762 378.675 712.499c46.694 97.178 75.008 125.747 45.056 155.75zm-93.389-100.096L548.71 235.879l-28.723 238.336 311.296 286.31z"/><glyph unicode="" glyph-name="document" d="M819.2 908.8H204.8c-28.314 0-51.2-22.886-51.2-51.2V38.4c0-28.262 22.886-51.2 51.2-51.2h614.4c28.314 0 51.2 22.938 51.2 51.2v819.2c0 28.262-22.886 51.2-51.2 51.2zM768 89.6H256v716.8h512V89.6z"/><glyph unicode="" glyph-name="documents" d="M993.178 580.352 612.045 682.547 545.331 931.43c-5.581 20.787-27.904 32.87-49.818 27.085L30.822 833.997C8.908 828.16-4.301 806.451 1.28 785.664l165.376-617.011c5.581-20.787 27.853-32.922 49.715-26.982l184.986 49.51-25.19-94.106c-5.581-20.787 7.629-42.496 29.542-48.282L820.941-62.516c21.914-5.888 44.134 6.195 49.766 27.085l152.064 567.501c5.53 20.787-7.68 42.496-29.594 48.282zM83.61 774.093l400.896 107.315 148.378-553.882-400.896-107.315L83.61 774.093zM802.714 14.694 453.837 110.08l27.443 102.502 199.731 53.606c21.914 5.786 35.226 27.494 29.594 48.282l-77.21 288.102 304.486-83.507L802.713 14.694z"/><glyph unicode="" glyph-name="download" d="M768 601.6H614.4v307.2H409.6V601.6H256l256-256 256 256zm222.106-334.438c-10.752 11.469-82.483 88.218-102.963 108.237-13.568 13.261-32.973 21.402-53.35 21.402h-89.958l156.877-153.293H719.259c-5.222 0-9.933-2.662-12.288-6.81L665.192 140.8H358.811l-41.779 95.898c-2.355 4.147-7.117 6.81-12.288 6.81H123.291l156.826 153.293H190.21c-20.326 0-39.731-8.141-53.35-21.402-20.48-20.07-92.211-96.819-102.963-108.237-25.037-26.675-38.81-47.923-32.256-74.189L30.364 35.584c6.554-26.317 35.379-47.923 64.102-47.923H929.64c28.723 0 57.549 21.606 64.102 47.923l28.723 157.389c6.451 26.266-7.27 47.514-32.358 74.189z"/><glyph unicode="" glyph-name="drink" d="M897.946 824.883C918.119 852.787 921.6 908.8 921.6 908.8H102.4s3.482-56.013 23.654-83.917L460.8 396.8V89.6H358.4C256 89.6 256-12.8 256-12.8h512s0 102.4-102.4 102.4H563.2v307.2l334.746 428.083zM481.28 652.8c0 45.312 36.659 81.92 81.92 81.92s81.92-36.608 81.92-81.92c0-45.21-36.659-81.92-81.92-81.92s-81.92 36.71-81.92 81.92z"/><glyph unicode="" glyph-name="drive" d="M975.821 402.022 813.466 807.884c-11.981 30.054-41.062 49.715-73.421 49.715h-456.09c-32.358 0-61.44-19.661-73.421-49.715L48.179 402.022a217.571 217.571 0 0 1-12.595-116.326l30.208-181.197C72.141 66.355 105.114 38.4 143.77 38.4h736.41c38.656 0 71.629 27.955 77.978 66.099l30.208 181.197c6.605 39.168 2.253 79.411-12.544 116.326zm-107.52-222.566c-3.686-22.323-22.989-38.656-45.619-38.656H201.319c-22.63 0-41.933 16.333-45.619 38.656l-18.688 112.282c-4.762 28.211 16.998 53.862 45.619 53.862h658.79c28.57 0 50.33-25.651 45.619-53.862l-18.739-112.282z"/><glyph unicode="" glyph-name="drop" d="M522.394 931.277c-1.382 11.008-19.456 11.008-20.787 0-45.21-363.878-276.378-438.886-276.378-691.814C225.229 83.149 356.506-43.519 512-43.519c155.443 0 286.72 126.72 286.72 282.982 0 252.928-231.117 327.936-276.326 691.814zM478.72 528.998c-3.021-11.213-6.298-22.733-9.677-34.714-20.531-72.909-43.827-155.597-43.827-251.187 0-51.814-30.618-70.195-59.187-70.195-32.717 0-59.187 26.778-59.187 59.699 0 112.998 54.374 186.829 102.4 251.904 15.104 20.378 29.286 39.68 40.806 58.88 5.274 8.806 19.456 8.397 25.907-.307 3.021-4.096 4.045-9.318 2.765-14.08z"/><glyph unicode="" glyph-name="edit" d="M899.123 835.123c-73.83 73.882-129.28 62.822-129.28 62.822l-656.691-656.64L61.44-2.509l243.866 51.712 656.691 656.538c-.051 0 11.059 55.45-62.874 129.382zM290.816 78.49l-83.149-17.92c-7.987 15.002-17.664 30.003-35.328 47.718-17.715 17.715-32.717 27.29-47.718 35.379l17.92 83.098 24.064 24.013s45.21-.922 96.307-52.019c51.046-50.995 52.019-96.307 52.019-96.307L290.816 78.49z"/><glyph unicode="" glyph-name="email" d="M747.93 336.794c0-43.008 12.237-60.16 44.237-60.16 71.322 0 116.736 90.88 116.736 242.022 0 231.014-168.346 341.606-378.522 341.606-216.218 0-412.877-144.998-412.877-419.021 0-261.734 172.032-404.275 436.224-404.275 89.702 0 149.914 9.83 242.022 40.55l19.763-82.278c-90.931-29.542-188.109-38.093-263.014-38.093-346.522 0-532.122 190.464-532.122 484.147 0 296.141 215.091 497.664 511.232 497.664 308.429 0 471.808-184.32 471.808-410.419 0-191.693-60.16-337.92-249.395-337.92-86.067 0-142.541 34.406-149.914 110.643-22.118-84.787-81.101-110.643-161.024-110.643-106.906 0-196.608 82.381-196.608 248.218 0 167.117 78.694 270.336 220.006 270.336 74.957 0 121.651-29.491 142.438-76.186l35.686 65.126h103.219V336.793h.102zM596.838 498.995c0 67.533-50.432 95.846-92.211 95.846-45.466 0-95.795-36.813-95.795-144.998 0-86.016 38.093-133.939 95.795-133.939 40.55 0 92.211 25.805 92.211 97.075v86.016z"/><glyph unicode="" glyph-name="emoji-flirt" d="M384 460.8c42.445 0 76.8 40.09 76.8 89.6S426.445 640 384 640s-76.8-40.141-76.8-89.6 34.406-89.6 76.8-89.6zm128 478.72C240.538 939.52 20.48 719.462 20.48 448S240.538-43.52 512-43.52c271.411 0 491.52 220.058 491.52 491.571 0 271.411-220.109 491.469-491.52 491.469zm0-880.589c-214.886 0-389.12 174.182-389.12 389.12 0 214.886 174.182 389.12 389.12 389.12S901.12 662.937 901.12 448c0-214.886-174.234-389.069-389.12-389.069zm222.259 320.666c-18.586 9.574-41.728 2.202-51.61-16.384-1.741-3.328-44.493-81.562-170.598-81.562-125.491 0-168.499 77.466-170.65 81.51-9.626 18.688-32.358 26.317-51.405 16.845-18.944-9.472-26.675-32.563-17.152-51.558 2.56-5.069 63.898-123.597 239.206-123.597 175.36 0 236.595 118.579 239.104 123.648 9.421 18.79 1.843 41.472-16.896 51.098zM576 512h128c21.197 0 38.4 17.203 38.4 38.4s-17.203 38.4-38.4 38.4H576c-21.197 0-38.4-17.203-38.4-38.4 0-21.248 17.203-38.4 38.4-38.4z"/><glyph unicode="" glyph-name="emoji-happy" d="M512 939.52C240.538 939.52 20.48 719.462 20.48 448S240.538-43.52 512-43.52c271.411 0 491.52 220.058 491.52 491.571 0 271.411-220.109 491.469-491.52 491.469zm0-880.589c-214.886 0-389.12 174.182-389.12 389.12S297.062 837.12 512 837.12c214.886 0 389.171-174.182 389.171-389.12S726.886 58.931 512 58.931zM384.051 460.8c42.394 0 76.749 40.09 76.749 89.6S426.394 640 384 640s-76.8-40.09-76.8-89.6 34.406-89.6 76.851-89.6zm255.949 0c42.445 0 76.8 40.09 76.8 89.6S682.394 640 640 640s-76.8-40.141-76.8-89.6 34.406-89.6 76.8-89.6zm94.259-81.203c-18.586 9.523-41.728 2.202-51.61-16.384-1.741-3.379-44.493-81.562-170.598-81.562-125.491 0-168.499 77.466-170.65 81.51-9.626 18.688-32.358 26.317-51.405 16.845-18.944-9.523-26.624-32.563-17.152-51.558 2.56-5.069 63.898-123.597 239.206-123.597 175.36 0 236.595 118.579 239.104 123.648 9.421 18.79 1.843 41.472-16.896 51.098z"/><glyph unicode="" glyph-name="emoji-neutral" d="M512 939.52C240.538 939.52 20.48 719.462 20.48 448S240.538-43.52 512-43.52c271.411 0 491.52 220.058 491.52 491.571 0 271.411-220.109 491.469-491.52 491.469zm0-880.589c-214.886 0-389.12 174.182-389.12 389.12 0 214.886 174.182 389.12 389.12 389.12 214.886 0 389.12-174.182 389.12-389.12S726.886 58.931 512 58.931zm128 581.018c-42.394 0-76.8-40.09-76.8-89.549s34.406-89.6 76.8-89.6c42.445 0 76.8 40.09 76.8 89.6s-34.355 89.549-76.8 89.549zM384.051 460.8c42.394 0 76.749 40.09 76.749 89.6S426.394 640 384 640s-76.8-40.09-76.8-89.6 34.406-89.6 76.851-89.6zm281.549-128H358.4c-21.197 0-38.4-17.203-38.4-38.4s17.203-38.4 38.4-38.4h307.2c21.197 0 38.4 17.203 38.4 38.4 0 21.248-17.152 38.4-38.4 38.4z"/><glyph unicode="" glyph-name="emoji-sad" d="M512.051 939.52C240.537 939.52 20.48 719.462 20.48 448c0-271.514 220.058-491.571 491.571-491.571 271.411 0 491.52 220.058 491.52 491.571-.051 271.462-220.16 491.52-491.52 491.52zM512 58.931c-214.886 0-389.12 174.182-389.12 389.12 0 214.886 174.182 389.12 389.12 389.12 214.886 0 389.12-174.182 389.12-389.12S726.886 58.931 512 58.931zM640.051 460.8c42.394 0 76.8 40.09 76.8 89.6s-34.406 89.6-76.8 89.6-76.8-40.09-76.8-89.6 34.355-89.6 76.8-89.6zm-256 0c42.394 0 76.8 40.09 76.8 89.6s-34.406 89.6-76.8 89.6-76.8-40.09-76.8-89.6 34.355-89.6 76.8-89.6zM512.102 384c-175.309 0-236.646-118.528-239.206-123.597-9.523-18.995-1.792-42.035 17.152-51.558 5.53-2.714 11.366-4.045 17.152-4.045 14.08 0 27.648 7.731 34.406 21.197.41.87 42.086 81.203 170.496 81.203 126.106 0 168.858-78.182 170.394-81.152 9.421-18.944 32.512-26.778 51.507-17.203 18.995 9.421 26.675 32.563 17.203 51.507C748.697 265.421 687.411 384 512.102 384z"/><glyph unicode="" glyph-name="erase" d="M921.6 806.4H432.435c-22.528 0-54.835-12.083-71.782-26.88L12.698 474.982c-16.947-14.797-16.947-39.117 0-53.914l347.955-304.486C377.6 101.785 409.907 89.6 432.435 89.6H921.6c56.32 0 102.4 46.08 102.4 102.4v512c0 56.32-46.08 102.4-102.4 102.4zM777.779 243.2 646.861 374.118 515.994 243.2l-73.882 73.882L572.979 448 442.112 578.918l73.882 73.882 130.918-130.816L777.728 652.8l73.933-73.882L720.794 448l130.918-130.816-73.933-73.984z"/><glyph unicode="" glyph-name="eraser" d="m870.298 745.984-161.485 124.16c-44.646 34.355-109.312 25.907-143.718-18.688L135.015 293.53c-34.355-44.595-25.958-109.158 18.688-143.514l161.434-124.16C359.783-8.499 424.449-.051 458.855 44.544L888.986 602.47c34.355 44.595 25.958 109.158-18.688 143.514zM437.658 116.89l-27.494-34.867c-7.782-10.086-19.712-15.872-32.717-15.872-6.349 0-15.821 1.485-24.832 8.397l-161.434 124.16c-8.602 6.605-14.08 16.23-15.514 27.136s1.434 21.606 8.038 30.157l27.494 34.867c7.782 10.086 19.712 15.923 32.768 15.923 6.349 0 15.821-1.485 24.832-8.397l161.485-124.16c8.602-6.605 14.08-16.23 15.514-27.136 1.331-10.906-1.536-21.606-8.141-30.208z"/><glyph unicode="" glyph-name="export" d="M768 192H102.4v460.8h132.864s35.277 45.875 111.104 102.4H51.2C22.886 755.2 0 732.211 0 704V140.8c0-28.314 22.886-51.2 51.2-51.2h768c28.314 0 51.2 22.886 51.2 51.2v191.795L768 248.371V192zm-83.917 355.84V366.029L1024 632.32 684.083 888.269V727.962C271.36 727.962 271.36 320 271.36 320c116.838 191.898 188.723 227.84 412.723 227.84z"/><glyph unicode="" glyph-name="eye" d="M512 734.72C176.077 734.72 0 487.322 0 448c0-39.219 176.077-286.72 512-286.72 335.872 0 512 247.501 512 286.72 0 39.322-176.128 286.72-512 286.72zm0-507.238c-125.696 0-227.584 98.714-227.584 220.518S386.304 668.621 512 668.621 739.533 569.805 739.533 448 637.696 227.482 512 227.482zM512 448c-20.838 22.886 33.946 110.285 0 110.285-62.874 0-113.818-49.408-113.818-110.285S449.126 337.715 512 337.715c62.822 0 113.818 49.408 113.818 110.285 0 28.006-96.102-19.405-113.818 0z"/><glyph unicode="" glyph-name="feather" d="M217.805-41.83c15.718 50.278 39.424 121.037 71.219 223.334 138.598 21.965 195.942-17.459 283.955 139.725-71.424-21.862-157.542 40.55-152.934 67.635 4.659 27.034 200.346-19.507 328.499 162.458-161.536-35.635-213.197 42.803-192.358 54.63 48.077 27.341 190.771 11.366 266.854 85.453 39.219 38.144 57.6 130.867 41.626 163.942-19.149 39.987-135.987 99.635-200.397 94.003-64.41-5.581-165.427-245.248-195.43-243.405-29.901 1.894-35.994 107.418 16.333 205.466C430.03 886.989 328.961 811.11 297.268 746.24c-59.034-120.678 5.53-397.619-15.155-407.45-20.736-9.882-90.419 127.027-111.206 189.133-28.416-95.181-29.082-190.515 53.914-317.133-31.283-83.098-48.384-178.739-50.995-227.379-1.229-38.861 37.069-47.206 43.981-25.242z"/><glyph unicode="" glyph-name="flag" d="M969.011 674.099c-478.157-694.682-314.47 13.312-718.694-325.478L342.221-12.8H238.848L51.2 724.992l94.72 33.997c453.069 331.315 216.474-297.984 800.614-64.205 18.637 7.526 33.536-4.608 22.477-20.685z"/><glyph unicode="" glyph-name="flash" d="M348.314-12.698c-9.933 6.502 161.434 366.592 155.546 382.413-5.939 15.821-187.648 73.523-196.506 101.325-8.909 27.802 358.758 445.798 368.435 437.709 9.626-8.09-160.205-370.586-155.597-382.413 4.659-11.776 190.874-71.885 196.506-101.325 5.683-29.44-358.502-444.211-368.384-437.709z"/><glyph unicode="" glyph-name="flashlight" d="M876.288 812.339c-85.811 85.811-193.485 117.146-227.789 82.842L510.464 757.146c-20.941-20.992-39.219-91.085-30.822-161.997L61.799 177.306c-24.781-24.781-4.71-84.992 44.851-134.605S216.525-26.88 241.255-2.201l417.843 417.894c70.963-8.397 141.056 9.882 161.997 30.771L959.13 584.55c34.304 34.304 2.97 142.029-82.842 227.789zM416.819 394.803c-19.098 19.046-12.851 56.115 13.773 82.79 26.675 26.675 63.795 32.922 82.842 13.824 19.046-18.995 12.851-56.166-13.824-82.79-26.675-26.726-63.744-32.922-82.79-13.824zm345.6 303.667c-66.458 66.406-83.098 154.112-77.21 160 5.888 5.939 90.112-14.182 156.621-80.64 66.458-66.458 86.426-150.835 80.64-156.621-5.734-5.734-93.645 10.752-160.051 77.261z"/><glyph unicode="" glyph-name="flat-brush" d="M94.413 197.683c25.498-19.251 81.613 60.314 99.43 46.848s-41.984-90.214-27.034-101.478c14.95-11.264 77.466 63.437 94.822 50.381 17.306-13.056-41.114-90.829-22.374-105.011 18.79-14.182 79.974 61.542 94.822 50.33s-39.578-92.006-22.374-104.96c17.203-13.005 75.827 64.666 90.112 53.862 14.336-10.803-43.213-89.242-17.715-108.493 25.498-19.2 274.944 458.957 274.944 458.957L460.595 588.596S68.915 216.884 94.413 197.684zm572.365 719.77L494.644 653.466l210.995-159.181L930.714 711.68c-26.982 76.954-176.128 196.762-263.936 205.773z"/><glyph unicode="" glyph-name="flow-branch" d="M839.68 755.2c0 67.891-54.989 122.88-122.88 122.88S593.92 823.091 593.92 755.2c0-49.203 29.082-91.341 70.861-110.95-4.198-81.101-65.024-108.646-170.752-148.275-44.544-16.742-93.645-35.277-135.629-63.181v210.995c42.24 19.456 71.68 61.901 71.68 111.411 0 67.891-54.989 122.88-122.88 122.88S184.32 823.091 184.32 755.2c0-49.51 29.491-91.955 71.68-111.411V252.16c-42.24-19.405-71.68-61.85-71.68-111.36 0-67.891 54.989-122.88 122.88-122.88S430.08 72.96 430.08 140.8c0 49.203-29.082 91.341-70.861 110.95 4.198 81.05 65.075 108.646 170.752 148.275 103.936 39.014 232.499 87.603 237.568 243.507 42.445 19.354 72.141 61.952 72.141 111.667zM307.2 826.112c39.117 0 70.861-31.693 70.861-70.912 0-39.117-31.744-70.912-70.861-70.912-39.168 0-70.861 31.795-70.861 70.912 0 39.219 31.693 70.912 70.861 70.912zm0-756.224c-39.219 0-70.912 31.795-70.912 70.912 0 39.219 31.693 70.912 70.912 70.912 39.117 0 70.861-31.693 70.861-70.912 0-39.117-31.744-70.912-70.861-70.912zm409.6 614.4c-39.219 0-70.912 31.795-70.912 70.912 0 39.219 31.693 70.912 70.912 70.912 39.117 0 70.861-31.693 70.861-70.912 0-39.117-31.744-70.912-70.861-70.912z"/><glyph unicode="" glyph-name="flow-cascade" d="M716.8 212.48c-49.51 0-91.955-29.491-111.411-71.68H435.2c-42.394 0-76.8 34.406-76.8 76.8v197.12c23.347-11.162 49.203-17.92 76.8-17.92h170.189c19.456-42.189 61.85-71.68 111.411-71.68 67.891 0 122.88 55.04 122.88 122.88S784.691 570.88 716.8 570.88c-49.51 0-91.955-29.491-111.411-71.68H435.2c-42.394 0-76.8 34.406-76.8 76.8v118.989c42.24 19.456 71.68 61.901 71.68 111.411 0 67.891-54.989 122.88-122.88 122.88S184.32 874.291 184.32 806.4c0-49.51 29.491-91.955 71.68-111.411V217.6c0-98.97 80.23-179.2 179.2-179.2h170.189c19.456-42.189 61.85-71.68 111.411-71.68 67.891 0 122.88 55.04 122.88 122.88S784.691 212.48 716.8 212.48zm0 306.432c39.117 0 70.861-31.693 70.861-70.912 0-39.117-31.744-70.912-70.861-70.912-39.219 0-70.912 31.795-70.912 70.912.051 39.219 31.744 70.912 70.912 70.912zm-409.6 358.4c39.117 0 70.861-31.693 70.861-70.912 0-39.117-31.744-70.912-70.861-70.912-39.168 0-70.861 31.795-70.861 70.912 0 39.219 31.693 70.912 70.861 70.912zM716.8 18.688c-39.219 0-70.912 31.795-70.912 70.912 0 39.219 31.693 70.912 70.912 70.912 39.117 0 70.861-31.693 70.861-70.912 0-39.117-31.744-70.912-70.861-70.912z"/><glyph unicode="" glyph-name="flow-line" d="M563.2 252.211v391.578c42.24 19.456 71.68 61.85 71.68 111.411 0 67.891-54.989 122.88-122.88 122.88S389.12 823.091 389.12 755.2c0-49.51 29.491-91.955 71.68-111.411V252.16c-42.24-19.405-71.68-61.85-71.68-111.36 0-67.891 54.989-122.88 122.88-122.88S634.88 72.96 634.88 140.8c0 49.51-29.44 91.955-71.68 111.411zM512 826.112c39.117 0 70.861-31.693 70.861-70.912 0-39.117-31.744-70.912-70.861-70.912-39.168 0-70.861 31.795-70.861 70.912 0 39.219 31.693 70.912 70.861 70.912zm0-756.224c-39.219 0-70.912 31.795-70.912 70.912 0 39.219 31.693 70.912 70.912 70.912 39.117 0 70.861-31.693 70.861-70.912 0-39.117-31.744-70.912-70.861-70.912z"/><glyph unicode="" glyph-name="flow-parallel" d="M430.08 755.2c0 67.891-54.989 122.88-122.88 122.88S184.32 823.091 184.32 755.2c0-49.51 29.491-91.955 71.68-111.411V252.16c-42.24-19.405-71.68-61.85-71.68-111.36 0-67.891 54.989-122.88 122.88-122.88S430.08 72.96 430.08 140.8c0 49.51-29.491 91.955-71.68 111.411v391.578c42.24 19.456 71.68 61.901 71.68 111.411zm-52.019-614.4c0-39.117-31.744-70.912-70.861-70.912-39.219 0-70.912 31.795-70.912 70.912 0 39.219 31.693 70.912 70.912 70.912 39.117 0 70.861-31.693 70.861-70.912zM307.2 684.288c-39.168 0-70.861 31.795-70.861 70.912 0 39.219 31.693 70.912 70.912 70.912 39.117 0 70.861-31.693 70.861-70.912-.051-39.117-31.795-70.912-70.912-70.912zM768 252.211v391.578c42.24 19.456 71.68 61.85 71.68 111.411 0 67.891-54.989 122.88-122.88 122.88S593.92 823.091 593.92 755.2c0-49.51 29.491-91.955 71.68-111.411V252.16c-42.24-19.456-71.68-61.85-71.68-111.411 0-67.891 54.989-122.88 122.88-122.88s122.88 55.04 122.88 122.88c0 49.562-29.44 92.006-71.68 111.462zM645.939 755.2c0 39.219 31.693 70.912 70.912 70.912 39.117 0 70.861-31.693 70.861-70.912 0-39.117-31.744-70.912-70.861-70.912-39.219 0-70.912 31.795-70.912 70.912zM716.8 69.888c-39.219 0-70.912 31.795-70.912 70.912 0 39.219 31.693 70.912 70.912 70.912 39.117 0 70.861-31.693 70.861-70.912 0-39.117-31.744-70.912-70.861-70.912z"/><glyph unicode="" glyph-name="flow-tree" d="M921.6 201.011V320c0 98.97-80.23 179.2-179.2 179.2H640c-42.394 0-76.8 34.406-76.8 76.8v118.989c42.24 19.456 71.68 61.85 71.68 111.411 0 67.891-54.989 122.88-122.88 122.88S389.12 874.291 389.12 806.4c0-49.51 29.491-91.955 71.68-111.411V576c0-42.394-34.406-76.8-76.8-76.8H281.6c-98.97 0-179.2-80.23-179.2-179.2V201.011C60.16 181.555 30.72 139.11 30.72 89.6c0-67.891 54.989-122.88 122.88-122.88S276.48 21.76 276.48 89.6c0 49.51-29.491 91.955-71.68 111.411V320c0 42.394 34.406 76.8 76.8 76.8H384c27.597 0 53.453 6.758 76.8 17.92V201.011c-42.24-19.456-71.68-61.901-71.68-111.411 0-67.891 54.989-122.88 122.88-122.88S634.88 21.76 634.88 89.6c0 49.51-29.491 91.955-71.68 111.411V414.72c23.347-11.162 49.203-17.92 76.8-17.92h102.4c42.394 0 76.8-34.406 76.8-76.8V201.011c-42.24-19.456-71.68-61.85-71.68-111.411 0-67.891 54.989-122.88 122.88-122.88S993.28 21.76 993.28 89.6c0 49.51-29.44 91.955-71.68 111.411zM512 877.312c39.117 0 70.861-31.693 70.861-70.912 0-39.117-31.744-70.912-70.861-70.912-39.168 0-70.861 31.795-70.861 70.912 0 39.219 31.693 70.912 70.861 70.912zM153.6 18.688c-39.219 0-70.912 31.795-70.912 70.912 0 39.219 31.693 70.912 70.912 70.912 39.117 0 70.861-31.693 70.861-70.912 0-39.117-31.744-70.912-70.861-70.912zm358.4 0c-39.219 0-70.912 31.795-70.912 70.912 0 39.219 31.693 70.912 70.912 70.912 39.117 0 70.861-31.693 70.861-70.912 0-39.117-31.744-70.912-70.861-70.912zm358.4 0c-39.219 0-70.912 31.795-70.912 70.912 0 39.219 31.693 70.912 70.912 70.912 39.117 0 70.861-31.693 70.861-70.912 0-39.117-31.744-70.912-70.861-70.912z"/><glyph unicode="" glyph-name="folder-images" d="M942.336 816.691c-5.734 22.528-33.587 40.909-61.952 40.909H143.616c-28.416 0-56.269-18.381-61.952-40.909L71.373 755.2h881.203l-10.24 61.491zM993.894 704H30.054c-17.51 0-31.181-15.053-29.542-32.512L47.77 74.035C49.716 53.862 66.714 38.4 86.989 38.4H936.96c20.326 0 37.274 15.462 39.219 35.635l47.258 597.453c1.69 17.459-12.032 32.512-29.542 32.512zM636.826 531.2c26.522 0 48.026-21.504 48.026-48.026s-21.504-48.026-48.026-48.026-48.026 21.555-48.026 48.077c0 26.47 21.504 47.974 48.026 47.974zM281.6 243.2l127.283 292.557 144.742-234.291 124.109 61.645 64.666-119.91H281.6z"/><glyph unicode="" glyph-name="folder-music" d="M942.336 816.691c-5.734 22.528-33.587 40.909-61.952 40.909H143.616c-28.416 0-56.269-18.381-61.952-40.909L71.373 755.2h881.203l-10.24 61.491zM993.894 704H30.054c-17.51 0-31.181-15.053-29.542-32.512L47.77 74.035C49.716 53.862 66.714 38.4 86.989 38.4H936.96c20.326 0 37.274 15.462 39.219 35.635l47.258 597.453c1.69 17.459-12.032 32.512-29.542 32.512zM611.43 318.925c-6.554-13.568-13.21-14.285-10.342 0 7.475 36.915 2.406 116.173-53.402 124.979V275.251c0-34.509-15.923-64.614-58.163-78.234-41.062-13.107-86.989.563-97.69 30.003-10.752 29.491 13.363 65.331 53.862 80.077 22.63 8.243 48.845 10.394 66.509 3.584v239.718h35.533c-.051-83.61 144.282-65.28 63.693-231.475z"/><glyph unicode="" glyph-name="folder-video" d="M942.336 816.691c-5.734 22.528-33.587 40.909-61.952 40.909H143.616c-28.416 0-56.269-18.381-61.952-40.909L71.373 755.2h881.203l-10.24 61.491zM993.894 704H30.054c-17.51 0-31.181-15.053-29.542-32.512L47.77 74.035C49.716 53.862 66.714 38.4 86.989 38.4H936.96c20.326 0 37.274 15.462 39.219 35.635l47.258 597.453c1.69 17.459-12.032 32.512-29.542 32.512zM409.6 243.2v256l224.41-128-224.41-128z"/><glyph unicode="" glyph-name="folder" d="M942.336 714.291c-5.683 22.528-33.536 40.909-61.952 40.909H531.507c-28.365 0-68.096 16.282-88.166 36.198l-30.515 30.106c-20.07 19.917-59.75 36.096-88.115 36.096H158.055c-28.416 0-54.221-22.886-57.344-50.893L85.761 652.8h866.867l-10.291 61.491zM993.894 601.6H30.105c-17.51 0-31.232-15.053-29.542-32.512L47.821 74.035C49.715 53.862 66.714 38.4 87.04 38.4h849.92c20.326 0 37.274 15.462 39.219 35.635l47.258 495.053c1.69 17.459-12.032 32.512-29.542 32.512z"/><glyph unicode="" glyph-name="forward" d="M614.4 352.051V128.973l358.4 342.528-358.4 336.486v-203.93c-449.28 0-563.2-498.278-563.2-498.278 127.181 224.666 319.334 246.272 563.2 246.272z"/><glyph unicode="" glyph-name="funnel" d="M512 908.8c-251.29 0-409.6-77.414-409.6-153.651v-102.4c0-47.002 307.2-307.2 307.2-307.2v-307.2c-.051-35.021 51.2-51.2 102.4-51.2s102.451 16.179 102.4 51.2v307.2s307.2 260.198 307.2 307.2v102.4C921.6 831.386 763.29 908.8 512 908.8zm0-262.298c-183.859.051-314.266 68.25-314.266 93.747-.102 25.344 130.458 93.747 314.266 93.645 183.808.102 314.368-68.301 314.266-93.594 0-25.549-130.406-93.747-314.266-93.798z"/><glyph unicode="" glyph-name="game-controller" d="M995.533 480.717c-45.158 252.211-146.125 326.605-199.834 326.605-83.814 0-105.318-62.31-283.699-64.41-178.381 2.099-199.885 64.41-283.699 64.41-53.709 0-154.726-74.394-199.885-326.605C2.662 336.743-25.293 121.805 41.318 96c82.893-32.102 111.002 48.179 202.035 116.019 92.416 68.762 136.755 84.941 268.646 84.941s176.23-16.179 268.646-84.941C871.679 144.23 899.787 63.897 982.68 96c66.611 25.805 38.656 240.691 12.851 384.717zM307.2 448c-56.576 0-102.4 45.875-102.4 102.4 0 56.576 45.824 102.4 102.4 102.4s102.4-45.824 102.4-102.4c0-56.525-45.875-102.4-102.4-102.4zm358.4 0c-28.314 0-51.2 22.886-51.2 51.2s22.886 51.2 51.2 51.2c28.314 0 51.2-22.886 51.2-51.2S693.914 448 665.6 448zM768 550.4c-28.314 0-51.2 22.886-51.2 51.2s22.886 51.2 51.2 51.2c28.314 0 51.2-22.886 51.2-51.2s-22.886-51.2-51.2-51.2z"/><glyph unicode="" glyph-name="gauge" d="M416.102 263.68c-35.277-61.286-11.52-111.616 37.478-139.878 48.947-28.314 104.499-23.808 139.878 37.478 35.277 61.184 258.406 607.488 239.002 618.701S451.43 324.915 416.102 263.68zM512 652.8c22.426 0 44.237-1.894 65.587-5.581 22.426 28.109 47.514 59.085 71.936 88.474C605.901 748.288 559.821 755.2 512 755.2 224.922 755.2 0 513.075 0 203.981c0-18.995.819-37.99 2.509-56.474 2.509-28.211 27.648-48.896 55.501-46.49 28.211 2.611 48.998 27.392 46.49 55.603a535.795 535.795 0 0 0-2.099 47.36c0 251.699 179.917 448.819 409.6 448.819zm369.613-64c-14.285-38.4-29.389-77.517-42.701-111.309 51.968-75.264 82.688-169.677 82.688-273.51 0-16.179-.768-32.512-2.202-48.282-2.56-28.211 18.176-53.094 46.336-55.706 1.536-.102 3.123-.205 4.71-.205 26.163 0 48.538 20.019 50.944 46.592 1.69 18.944 2.611 38.298 2.611 57.6 0 151.245-53.914 286.208-142.387 384.819z"/><glyph unicode="" glyph-name="globe" d="M512 939.52C240.896 939.52 20.429 719.002 20.429 448S240.896-43.52 512-43.52c271.002 0 491.52 220.518 491.52 491.52S783.002 939.52 512 939.52zM931.226 448c0-95.898-32.563-184.32-86.835-254.976-15.36 11.981-31.693 44.39-16.333 77.978 15.514 33.792 19.558 112.026 15.974 142.49-3.379 30.413-19.2 103.68-62.157 104.397-42.906.614-72.346 14.797-97.843 65.69-52.89 105.882 99.277 126.208 46.387 184.781-14.797 16.486-91.29-67.686-102.502 44.493-.717 8.038 6.912 20.07 17.203 32.563 166.093-55.808 286.106-212.838 286.106-397.414zM454.4 863.078c-10.035-19.558-36.506-27.494-52.582-42.189-35.021-31.693-50.074-27.29-68.915-57.702-18.995-30.413-80.23-74.189-80.23-96.205s30.925-47.923 46.387-42.906c15.462 5.12 56.269 4.813 80.23-3.584 24.013-8.499 200.397-16.998 144.179-166.093-17.818-47.411-95.898-39.424-116.685-117.914-3.123-11.52-13.926-60.723-14.592-76.8-1.28-24.883 17.613-118.682-6.4-118.682-24.115 0-88.986 83.917-88.986 99.123s-16.794 68.506-16.794 114.176c0 45.619-77.722 44.902-77.722 105.574 0 54.682 42.138 81.92 32.666 108.186-9.267 26.112-83.302 26.982-114.176 30.208 53.914 139.827 180.736 243.61 333.619 264.806zM380.109 50.176c25.19 13.312 27.75 30.515 50.586 31.386 26.112 1.178 47.36 10.189 76.8 16.691 26.112 5.683 72.858 32.205 113.971 35.584 34.714 2.816 103.168-1.792 121.6-35.277-66.304-44.083-145.818-69.786-231.117-69.786-46.029 0-90.368 7.629-131.84 21.402z"/></font>
</defs>
</svg>
